<?xml version="1.0" encoding="utf-8"?>
<!-- Generator: Adobe Illustrator 24.0.1, SVG Export Plug-In . SVG Version: 6.00 Build 0)  -->
<svg version="1.1" id="Layer_1" xmlns="http://www.w3.org/2000/svg" xmlns:xlink="http://www.w3.org/1999/xlink" x="0px" y="0px"
	 viewBox="0 0 818.4 195.4" style="enable-background:new 0 0 818.4 195.4;" xml:space="preserve">
<style type="text/css">
	.st0{fill:#1D1D1B;}
</style>
<path class="st0" d="M63.8,138.6c-2.3,13.4-4.5,25.7-6.8,38c-1.1,3.9-2.2,5.6-6.1,5.6H33.5c-3.3,0-5-1.6-3.9-5l8.4-48.1
	c3.9-22.4,8.4-45.3,11.7-67.6c0.5-3.3,1.6-5,5.6-5h18.3c3.9,0,4.5,1.7,3.9,5c-0.6,2.2-0.6,4.5,0,6.7c1-0.9,2.1-1.7,3.4-2.2
	c10.5-8.9,24.9-11.7,37.9-7.2c11.6,2.9,20,13.1,20.7,25.1c3.7,21.3-5.5,42.9-23.5,55c-12.7,10.2-30.1,12.2-44.7,5L63.8,138.6z
	 M86.7,124.6c13.9-0.1,25.7-10.3,27.9-24c2.6-9.4-2.8-19.2-12.2-21.8c-3.1-0.9-6.4-0.9-9.6,0c-12.1,3.1-21.2,12.9-23.5,25.2
	c-1.9,9.3,4,18.3,13.3,20.3C84,124.5,85.3,124.6,86.7,124.6z"/>
<path class="st0" d="M229.2,68.1c2.3-3.3,3.4-6.1,5-8.3c1.6-2.2,2.8-2.8,4.5-2.8c5-0.3,10.1-0.3,15.1,0c3.3,0,4.4,1.2,3.8,4.5
	c-2.2,12.8-4.4,25.2-6.7,38c-2.3,12.8-5,27.5-7.2,41.9c-1.1,5.6-2.8,6.8-8.4,6.8h-10.6c-3.4,0.6-6.7-1.3-7.8-4.5l-1.1-2.3
	c-6.9,2.8-14,5-21.2,6.8c-19.7,4.8-39.5-7.2-44.3-26.8c-0.1-0.6-0.3-1.1-0.4-1.7c-2.9-22,7.7-43.7,26.8-55
	c11.4-6.4,24.7-8.4,37.5-5.6C220.4,59.3,226,62.8,229.2,68.1z M174.2,106.7c-0.4,9.8,7.3,18,17,18.3c0.4,0,0.9,0,1.3,0
	c14.5-1.3,25.9-13,26.8-27.5c0.6-9-5.7-16.9-14.6-18.3c-15.9-0.9-29.5,11.3-30.4,27.2c0,0.1,0,0.2,0,0.3H174.2z"/>
<path class="st0" d="M733.4,64.8c10.9-8.6,25.6-10.8,38.5-5.6c8.6,2.9,15.2,9.7,17.9,18.3c0.5,1.8,0.6,3.7,0.5,5.6
	c-3.4,20.2-7.2,39.7-10.6,59.8c-0.5,3.3-2.2,4.5-5.6,4.5h-16.8c-4.5,0-5.6-1.7-5-6.2c2.8-15,5-29.6,7.8-44.7
	c1.7-6.4-2.2-13-8.6-14.7c-1.2-0.3-2.5-0.4-3.7-0.4c-11.4-0.5-21,8.2-21.7,19.6c-2.2,14.6-5,28.5-7.2,43.1c-0.5,2.2-1.6,3.9-3.9,3.9
	h-20.1c-3.4,0-3.9-1.7-3.4-4.5c3.9-20.7,7.2-41.4,11.2-62.6c1.1-6.8,2.3-12.9,3.4-19.6c0.5-2.7,1.6-3.9,4.5-3.9h18.3
	c5,0,5,0.6,4.5,5C733.4,63.1,733.4,63.7,733.4,64.8z"/>
<path class="st0" d="M649.6,140.2c-5.3,2.7-11,4.7-16.8,6.1c-7.1,2-14.6,1.3-21.3-1.9c-17.3-8.3-20.7-16.8-17.3-32.4
	s6.1-33,9.2-49.8c1.2-5,1.7-6.1,6.8-6.1h15.1c4.5,0,6.1,1.7,5.6,6.1c-1.6,9.2-3.3,19.6-5,29.1c-1.2,5.1-2.1,10.3-2.7,15.6
	c-1.6,10.1,7.2,17.3,19,14.6c8-1.9,13.8-8.6,14.6-16.8c2.7-14.6,5-29,7.8-43.6c1.1-5.6,1.1-5.6,6.7-5.6h15.1c5.6,0,6.7,1.1,5.6,6.7
	c-1.6,9.2-3.3,19.6-5,29.1c-2.7,16.1-6.1,32.9-8.3,49.7c-0.5,3.9-2.3,5.6-6.1,5h-15.7c-5.6,0-6.1-0.5-5.6-5.6
	C649.6,140.8,649.6,140.2,649.6,140.2z"/>
<path class="st0" d="M303.6,112.3c1.1-2.2,2.7-4.5,3.8-6.7c9.2-15.1,17.3-30.1,25.7-45.3c1.2-2.8,4.2-4.4,7.2-3.9
	c5.4,0.3,10.8,0.3,16.2,0c6.1,0,6.7,1.1,3.4,6.7c-8.4,14-16.2,28.6-24.7,42.5c-13.9,24-27.5,48.1-41.9,72.7c-1,2.4-3.5,4-6.1,3.9
	H269c-4.4,0-5.6-1.1-3.3-5.6c5-8.4,10.1-17.3,14.5-25.7c1.2-2,1.7-4.4,1.2-6.7c-4.5-26.3-9.2-53.1-14-79.4c0.1-1.3-0.1-2.7-0.5-3.9
	c-0.6-1.4,0.1-3.1,1.5-3.7c0.4-0.2,0.9-0.3,1.3-0.2H288c3.4,0,3.4,2.3,3.9,4.5c1.6,10.1,3.3,19.6,5,29.6c1.1,7.3,2.7,14,3.8,21.3
	H303.6z"/>
<path class="st0" d="M531,121.3h-11.7c-3.8,0-5-1.6-4.5-5c0.6-5,1.7-10.1,2.8-15.7c0.5-2.7,2.2-3.9,4.5-3.3h10.6
	c2.7,0,3.8-1.2,4.5-3.9c1.1-4.5,1.6-9.2,2.7-14c4.8-13.5,17.5-22.6,31.9-22.9h15c2.8,0,3.9,1.1,3.4,3.9c-1.1,5.6-2.2,10.6-2.7,16.2
	c-0.2,2.4-2.2,4.2-4.6,4c-0.1,0-0.3,0-0.4-0.1h-6.8c-6.7-0.2-12.3,5-12.5,11.7c0,0.9,0,1.9,0.2,2.8c0,0.5,1.7,1.6,2.8,1.6h12.3
	c3.9,0,5,1.7,4.5,5c-0.5,3.3-1.7,9.2-2.3,14c-0.5,3.3-2.2,5.6-6.1,5h-12.3c-2-0.1-3.7,1.3-3.9,3.3c-1.6,9.2-3.3,18.3-5,27.5
	c-2.2,17.3-17.2,30.1-34.6,29.6H507c-2.7,0-3.9-1.2-3.4-3.9c1.2-5.6,1.7-11.2,2.8-16.8c1-1.4,2.3-2.4,3.9-2.8c1.9-0.3,3.7-0.3,5.6,0
	c5,0.8,9.7-2.6,10.5-7.5c0-0.3,0.1-0.5,0.1-0.8c1.6-8.4,2.7-16.2,4.4-24.7V121.3z"/>
<path class="st0" d="M429.3,117h-19c-7.3,0-10.1-4.5-6.1-11.2c5.6-10.1,11.2-19.5,17.3-29.6c7.8-13.5,15.7-27.5,24-40.9
	c2.8-4.9,6.1-6.1,11.2-2.7c5,3.4,12.8,7.2,19,11.2c8.6,4.6,11.8,15.3,7.2,23.8c-0.1,0.3-0.3,0.5-0.4,0.7
	c-8.4,15.1-17.3,30.2-26.3,45.3c-1.8,2-4.1,3.3-6.7,3.9C442,117,435.4,117,429.3,117z M462.3,80.3v-1.7c-0.5-0.5-1.6-1.6-2.2-1.6
	c-5.6-3.4-11.2-6.7-16.8-9.2c-1.2-0.5-2.8,0-4.5,0c0.5,1.7,0,4.5,1.1,5c5.6,3.4,11.2,6.7,16.8,9.2C457.8,82.7,460.4,81,462.3,80.3z
	 M456.2,70.2c2.2-4.5,5-8.4,7.2-12.3c0.5-0.6-0.5-2.8-1.6-2.8c-1.3-0.6-2.7-0.6-3.9,0c-2.2,4-4.6,7.9-7.2,11.7
	c2,0.9,3.9,2.1,5.6,3.6V70.2z M447,64.6c2.1-3.2,4-6.6,5.6-10.1c1.2-1.1,0.5-2.8,1.2-4.5c-1.7,0.5-4.5,0-5.6,1.1
	c-1.7,2-3,4.3-3.9,6.8c-2.2,4.6-2.2,4.6,2.9,6.9L447,64.6z M471.6,62.3c-1.1-1.1-1.7-2.2-2.8-3.3c-1.1-1.1-2.2,0-2.2,0.5
	c-2.3,3.4-4.4,7.1-6.2,10.8c-0.5,0.5,0.5,2.2,1.1,2.7c0.5,0.5,2.7,1.1,3.4,0.5c2.6-3.6,4.9-7.3,7-11.2L471.6,62.3z"/>
<path class="st0" d="M437.7,133h41c3.9,0,5,1.1,5,5V152c0,3.9-1.6,5.6-5.6,5h-7.2c-5,0-6.8,1.2-6.8,6.8v13.9c0,3.4-1.1,4.5-4.4,4.5
	h-20.2c-3.4,0-4.5-1.1-4.5-4.5v-14.9c0-4.4-1.6-6.1-6.1-6.1h-32.7c-3.8,0-5-1.1-5-5v-14.7c0-3.4,1.2-4.5,4.5-4.5
	C410.3,133,423.7,133,437.7,133z"/>
<path class="st0" d="M356.1,118.4c0.7-3,1.8-5.8,3.4-8.3c16.8-29.6,34.1-58.7,50.9-88.3c3.3-6.8,11.5-9.6,18.3-6.3
	c0.4,0.2,0.9,0.4,1.3,0.7c3.4,1.6,3.9,3.4,1.7,6.7c-7.9,13.5-15.7,27.5-23.6,40.9c-11.7,20.6-24,41.3-35.7,61.5
	c-3.4,5.6-5.6,6.1-10.6,1.6C359.6,125.2,358.3,121.3,356.1,118.4z"/>
</svg>
