<?xml version="1.0" encoding="utf-8"?>
<!-- Generator: Adobe Illustrator 24.0.1, SVG Export Plug-In . SVG Version: 6.00 Build 0)  -->
<svg version="1.1" id="Layer_1" xmlns="http://www.w3.org/2000/svg" xmlns:xlink="http://www.w3.org/1999/xlink" x="0px" y="0px"
	 viewBox="0 0 790.6 300" style="enable-background:new 0 0 790.6 300;" xml:space="preserve">
<style type="text/css">
	.st0{fill:#1D1D1B;}
	.st1{opacity:0.4;fill:#1D1D1B;enable-background:new    ;}
</style>
<path class="st0" d="M84.2,28.1L36,168.5h28.4l13.6-41h39.2l14,41h28.9L111.8,28.1H84.2z M110.3,104.3H84.9l10.5-30.9
	c0.7-2.1,1.5-4.2,2-6.3c0.7,2.1,1.4,4.3,2.2,6.5L110.3,104.3z M207.8,104.3c-13-5.2-14.5-7.5-14.5-11.3s4-7.7,10.5-7.7
	c5.8,0.1,11.5,1.8,16.5,4.9l5.6,3.5l7.2-22.3l-3.3-2.1c-7.8-4.5-16.7-6.8-25.7-6.6c-21.8,0-37.7,13.7-37.7,32.6
	c0,17.3,15.5,26.6,28.5,31.6c13,5.1,13.9,8.1,13.9,12.2c0,7.7-8.1,8.8-12.9,8.8c-7.1-0.3-14.1-2.3-20.3-5.8l-5.5-3.3l-7.3,22.8
	l3.5,2c8.9,4.9,18.9,7.4,29.1,7.3c24.1,0,40.1-13.4,40.1-33.2s-15.8-28.4-27.8-32.8L207.8,104.3z M278.5,40.3l-27,8.1v16h-14.6v23.1
	h14.6v45.9c-0.8,10,2,19.9,7.9,28c5.8,5.9,13.9,9.2,22.3,8.9c5.8,0,11.5-0.8,17-2.6l3.6-1.3l-1.4-23.2l-6.2,1.9
	c-2.7,0.7-5.6,1.1-8.4,0.9c-3.3,0-7.6,0-7.6-13.1V87.6h24.5V64.8h-24.6V40.6L278.5,40.3z M368.8,63.5l-5-0.6c-1.6-0.1-3.2-0.1-4.9,0
	c-8.5,0.1-16.6,3.5-22.5,9.6v-7.6h-25.6v5.4c0,8,0.8,17.1,0.8,28.9v69.4h27.4v-55.1c-0.1-2.3-0.1-4.6,0-7
	c0.7-9.5,8.4-17.1,17.9-17.5c1.6-0.2,3.2-0.2,4.7,0l6.2,1.3V63.9L368.8,63.5z M418.8,62.5c-28.1-0.6-51.4,21.7-52,49.9
	c0,1.6,0,3.2,0.1,4.8c-1.8,27.3,19,50.9,46.3,52.6c1.3,0.1,2.6,0.1,3.9,0.1c28.2,0.6,51.6-21.8,52.2-50.1c0-1.6,0-3.1-0.1-4.7
	c1.8-27.3-19-50.9-46.3-52.7c-1.4-0.1-2.8-0.1-4.2-0.1L418.8,62.5z M441.5,116.1c0,18.1-9.9,31.6-23.4,31.6s-23.3-13.1-23.3-30.9
	c0-11.5,5-31,23.6-31c18.7,0,23.1,20,23.1,30.6L441.5,116.1z M559.1,39.7c-11.5-8.8-25.8-13.2-40.3-12.1
	c-11.2-0.1-22.3,0.8-33.3,2.5l-4.2,0.7v137.7h27.6v-51.4c2.8,0.2,5.6,0.2,8.4,0c16.1,0.9,31.9-4.8,43.8-15.8
	c8-8.5,12.2-20,11.6-31.6C572.6,58.2,567.6,47.3,559.1,39.7z M545,71.3c0,19.6-17.4,22.5-27.8,22.5c-3,0.2-5.9,0.2-8.9,0V51.6
	c3.7-0.7,7.4-1.2,11.1-1.4C531,50.2,545,54.3,545,71.3z M655.5,141V106c0-27.8-14.6-43.2-40.9-43.2c-11.9-0.1-23.6,3-33.9,9
	l-3.4,2.1l7.3,21.1l5.7-3.8c6.5-4.1,14.1-6.2,21.8-6.1c4.4-0.4,8.8,1,12.2,3.8c2.4,2.6,3.8,6,3.9,9.5c-16.9-0.9-33.5,4.5-46.5,15.2
	c-6.6,6.5-10.2,15.4-9.9,24.7c0,17.5,14.1,31.7,31.6,31.7c0.8,0,1.5,0,2.3-0.1c9.2,0.1,18.2-2.8,25.5-8.3l0.7,6.1h25.9l-0.9-5.8
	c-1.1-7-1.5-14-1.4-21.1L655.5,141z M609.9,147.8c-5.5,0.4-10.2-3.7-10.6-9.2c0-0.6,0-1.3,0-1.9c-0.2-3.4,1.1-6.6,3.6-9
	c7.5-5.5,16.8-8,26.1-7.1v11.2c0.2,1.2,0.2,2.5,0,3.7C626.2,143.6,618.3,148.6,609.9,147.8z M730.4,64.8L710.5,123l-1.5,4.4
	c0-1.5-0.9-2.8-1.5-4.1l-21.1-58.5h-30l37.4,93l0,0c0.4,0.7,0.7,1.4,0.9,2.1l-0.9,2.1c-3,6.6-7.4,12.4-12.9,17.1l0,0
	c-3.9,3.3-8.4,5.8-13.3,7.4l-4.7,1.5l7,23.2l4.5-0.7c8.7-2,16.8-6.1,23.5-12c13.3-11.6,22-30.3,33.6-60.5l28.4-73.8L730.4,64.8z"/>
<path class="st1" d="M136,66.7c22-19.4,50.6-29.7,80-28.5c12.4,0,24.7,1.5,36.6,4.7h0.9l21.1-6.2l-9.4-3.5c-19-7-39-10.6-59.3-10.5
	c-28.1-0.6-55.8,6.5-80.2,20.6l-2.3,1.5l8.8,25.4l4-3.9L136,66.7z M648.4,273c-0.1,7.9-6.5,14.2-14.3,14.2H478.3
	c-7.9,0-14.3-6.4-14.3-14.2v-66.9c0.1-7.9,6.5-14.2,14.3-14.2h155.8c7.9,0,14.3,6.4,14.3,14.2L648.4,273z M506.7,222.6
	c2,0,3.9,0.3,5.8,0.9c1.8,0.5,3.6,1.1,5.3,2l2.8-6.6c-4.3-2.1-9.1-3.2-13.9-3.2c-4.3-0.1-8.6,1-12.3,3.1c-3.5,2.1-6.4,5.1-8.2,8.8
	c-1.9,4.2-2.8,8.7-2.7,13.3c-0.5,6.7,1.6,13.3,5.8,18.6c4.3,4.5,10.3,6.9,16.6,6.5c4.6,0.1,9.3-0.6,13.6-2.2v-6.9
	c-2,0.6-4.1,1.2-6.1,1.6c-2,0.5-4,0.7-6,0.6c-4,0.2-7.9-1.5-10.5-4.5c-2.8-4-4.2-8.8-3.9-13.6c-0.3-4.8,1.1-9.5,4-13.4
	c2.6-3.2,6.5-5,10.5-5H506.7z M552,264.8h5.8v-24.7c0.3-3.6-1-7.1-3.7-9.6c-3.1-2.2-6.8-3.3-10.5-3.1c-4.7-0.1-9.3,1-13.5,3.2
	l2.5,5.6c1.6-0.7,3.3-1.4,5.1-2c1.8-0.6,3.6-0.8,5.5-0.8c1.9-0.2,3.7,0.5,5.1,1.8c1.2,1.5,1.8,3.4,1.7,5.3v2h-6.4
	c-4.5-0.2-9,0.9-13,3.2c-2.9,1.9-4.5,5.2-4.3,8.6c-0.1,3.1,1,6,3.2,8.2c2.3,2.1,5.4,3.2,8.5,3c2.4,0.1,4.8-0.3,7-1.3
	c2.1-1.1,3.9-2.6,5.4-4.5l0,0L552,264.8z M540.5,260c-1.6,0.1-3.2-0.3-4.4-1.3c-2.2-2.5-1.9-6.3,0.6-8.5c0.2-0.1,0.3-0.3,0.5-0.4
	c2.5-1.3,5.4-2,8.2-1.9h4.7v2.7c0.1,2.5-0.9,5-2.7,6.8C545.5,259.1,543,260,540.5,260z M586.7,227.7c-2.3,0-4.5,0.7-6.3,2
	c-2,1.4-3.7,3.2-4.9,5.3l0,0l-1.1-6.5h-6.2v36.9h7.9V246c-0.2-2.9,0.9-5.8,3-7.9c2-2,4.8-3.1,7.7-3.1c1.2-0.1,2.3-0.1,3.5,0l0.7-7.3
	c-1.5-0.3-3.1-0.3-4.6-0.1H586.7z M610.1,266.1c4.4,0.2,8.6-1.9,11.1-5.6l0,0l1.3,4.9h6.2v-51.9h-7.9v13.4c-0.1,2.1-0.1,4.2,0,6.2
	l0,0c-2.6-3.6-6.8-5.6-11.2-5.4c-4.1-0.1-8.1,1.8-10.5,5.2c-2.9,4.1-4.4,9.1-4,14.1c-0.3,5,1.1,9.9,3.9,14c2.6,3.3,6.6,5.2,10.9,5.1
	H610.1z M612.2,259.6c-2.6,0.2-5.1-1-6.5-3.2c-1.6-2.8-2.4-6.1-2.2-9.4c-0.1-3.3,0.6-6.7,2.2-9.6c1.4-2.2,3.9-3.5,6.5-3.4
	c2.7-0.2,5.4,0.9,7.2,3c1.8,3,2.6,6.4,2.3,9.9v1.2c0.2,3.1-0.6,6.2-2.3,8.9C617.5,258.9,614.9,259.9,612.2,259.6z"/>
</svg>
