<?xml version="1.0" encoding="utf-8"?>
<!-- Generator: Adobe Illustrator 24.0.1, SVG Export Plug-In . SVG Version: 6.00 Build 0)  -->
<svg version="1.1" id="Layer_1" xmlns="http://www.w3.org/2000/svg" xmlns:xlink="http://www.w3.org/1999/xlink" x="0px" y="0px"
	 viewBox="0 0 934.4 195.4" style="enable-background:new 0 0 934.4 195.4;" xml:space="preserve">
<style type="text/css">
	.st0{fill:#1D1D1B;}
</style>
<path class="st0" d="M114.4,23.8c0,20.2,33.5,43.1,33.5,65.7c-0.1,1.6-0.4,3.2-0.9,4.7c31.3,6.6,53.6,22.4,53.6,40.9
	c0,24.8-39.5,45.4-88.6,45.4S23,160.2,23,136c0-18.4,24-33.4,53.1-41.4c0,10.2,33.1,42.5,33.8,55.6c0.2,1.4,0.2,2.8,0,4.2
	c7.1-3.8,7.1-15.8,7.1-15.8c0-28.3-32.1-40.9-32.1-68.9c-0.7-8.2,2.9-16.1,9.5-21v7.8c0,20.2,34.4,43.1,34.4,61.3v6.6
	c8.1-3.1,8.1-18.3,8.1-18.3c0-25.8-32.3-39.7-32.3-68.9c-0.7-8.2,2.9-16.1,9.5-21L114.4,23.8z M271,172.6c-9.9,0-19.8-1.7-29.1-5.1
	v-30.1h4.1c1,14.8,12.7,26.8,27.5,28.1c13.5,0,23-7.7,23-19.8s-12.6-18.8-21-23l-12.1-6.2c-11.9-4.8-19.9-16-20.8-28.9
	c0-16.7,12.1-31,35.1-31c9.9,0.1,19.6,1.9,28.9,5.4v26.9h-4.1c-2.5-14.3-10.2-25.8-25.8-25.8c-9.5-1-17.9,5.9-18.9,15.3
	c-0.1,0.6-0.1,1.2-0.1,1.7c0,11,7.5,15.9,16.1,20.4l12.1,6.2c11,5.7,24.6,15.2,24.6,31.5C310.5,158.9,296.6,172.7,271,172.6
	L271,172.6z M342.8,172c-9.2,0.4-16.9-6.8-17.3-16c0-0.6,0-1.2,0-1.9c0-7.7,5.4-13.6,17.2-18l20.9-7.8v-6.6
	c0-10.1-4.5-16.3-11.3-16.3c-4.7,0-9.1,2.3-11.7,6.2c-0.8,1.6-1.1,3.3-1,5.1c0.2,2.1,0.7,4,1.7,5.9l-10.2,4.8
	c-1.6-2.6-2.6-5.6-2.8-8.6c0-0.7,0-1.3,0-1.8c0.8-5.7,5.6-9.6,12.1-13.5c4.6-3.1,10-4.9,15.6-5.1c11.8-0.9,22,7.9,22.9,19.7
	c0,0.5,0.1,1,0.1,1.5v32.9c0,5.3,0,8.6,4.7,8.6c1.3,0.1,2.5-0.1,3.7-0.6l3.7-1.3v4.7l-21.7,8.6c-3-2.7-4.9-6.3-5.4-10.3
	c-5.9,5.6-13.3,9.2-21.4,10.3L342.8,172z M349.2,139.8c-5.1,1.7-8.6,6.4-8.6,11.8c-0.4,5.6,3.8,10.4,9.4,10.8c0.3,0,0.6,0,1,0
	c4.8-0.4,9.5-2.3,13.2-5.4v-23.9L349.2,139.8z M396.1,170.4v-3.8l5.2-0.9c3.1-0.5,5.3-3.2,5.3-6.3v-42.5c0-3.6-1.7-5.6-4.8-5.6
	c-1.2,0-2.4,0.3-3.5,0.7l-2.1,0.8V108l22.3-9.9h3.3v11.8c5.3-6.9,13.3-11.2,22-11.8c12.6-0.4,23.1,9.5,23.5,22.1c0,1,0,2-0.1,3.1
	v36.1c0,3.1,2.3,5.8,5.4,6.3l5.3,0.9v3.8H441v-3.8l5.1-0.9c3.1-0.5,5.4-3.1,5.6-6.3v-35.9c1-7.4-4.1-14.2-11.5-15.3
	c-0.7-0.1-1.5-0.1-2.2-0.1c-6.1,0.4-11.7,3.1-15.9,7.5v43.8c0.2,3.2,2.5,5.8,5.6,6.3l5.1,0.9v3.8H396.1z M531.4,107.8h-21.7v39.4
	c0,8.6,4.6,13.5,11,13.5c3.8-0.1,7.4-1.1,10.7-3l1.7,3.8l-14,9.1c-1.4,0.2-2.7,0.4-4.1,0.4c-13.5,0-20.8-8.1-20.8-25.3v-38h-11.3v-4
	c10.5-4.5,18.9-12.7,23.7-23.1h3.1v20.2h24.5C534.2,100.9,531.4,107.8,531.4,107.8z M557.2,172c-9.2,0.4-16.9-6.8-17.3-16
	c0-0.6,0-1.2,0-1.9c0-7.7,5.4-13.6,17.2-18l20.9-7.8v-6.6c0-10.1-4.5-16.3-11.3-16.3c-4.7,0-9,2.3-11.6,6.2
	c-0.8,1.6-1.2,3.3-1.1,5.1c0.2,2.1,0.7,4,1.7,5.9l-10.2,4.8c-1.6-2.6-2.5-5.6-2.8-8.6c0-0.7,0-1.3,0-1.8c0.8-5.7,5.5-9.6,12.1-13.5
	c4.6-3.1,10.1-4.9,15.7-5.1c11.7-0.9,21.9,7.9,22.8,19.6c0,0.5,0.1,1.1,0.1,1.6v32.9c0,5.3,0.5,8.6,4.7,8.6c1.3,0.1,2.5-0.1,3.7-0.6
	l3.7-1.3v4.7l-21.7,8.6c-3-2.6-5-6.3-5.4-10.3c-5.9,5.6-13.4,9.2-21.4,10.3L557.2,172z M563.6,139.8c-5.1,1.7-8.6,6.4-8.6,11.8
	c-0.4,5.6,3.8,10.4,9.4,10.8c0.3,0,0.6,0,0.9,0c4.8-0.4,9.5-2.3,13.2-5.4v-23.9L563.6,139.8z M610.8,170.4v-3.8l5.1-0.9
	c3.1-0.5,5.3-3.2,5.3-6.3v-42.5c0-3.6-1.7-5.6-4.8-5.6c-1.2,0-2.4,0.3-3.5,0.7l-2,0.8V108l22.3-9.9h3.5v11.8
	c5.3-6.9,13.3-11.2,22-11.8c12.6-0.4,23.1,9.6,23.5,22.2c0,1,0,2-0.1,3v36.1c0,3.1,2.3,5.8,5.4,6.3l5.3,0.9v3.8h-36.9v-3.8l5.1-0.9
	c3.1-0.5,5.4-3.1,5.6-6.3v-35.9c1.1-7.3-4-14.2-11.3-15.3c-0.8-0.1-1.5-0.2-2.3-0.1c-6.2,0.5-12,3.3-16.3,7.8v43.8
	c0.2,3.2,2.5,5.8,5.6,6.3l5.2,0.9v3.8L610.8,170.4z M731.9,172c-18.2-0.4-32.6-15.4-32.2-33.6c0-0.6,0-1.2,0.1-1.8
	c-0.5-20.8,16-38,36.8-38.5c0.2,0,0.4,0,0.6,0c5.5-0.1,10.9,0.9,16,3V64.7c0-3.8-2.1-4.9-4.5-4.9c-1.5,0-3,0.3-4.4,0.8l-3.1,1.1
	v-4.7l24.6-10.5h3.3v104.8c0,6.1,0.9,9.6,5.1,9.6c1.3,0.1,2.5-0.1,3.7-0.6l3.8-1.3v4.7l-21.7,8.6c-3.2-2.7-5.3-6.4-5.9-10.5
	c-5.5,6.4-13.5,10.1-22,10.2H731.9z M738.8,104.8c-11.2,0-22.7,7.3-22.7,28.6c0,17.8,8.6,28.7,22.3,28.7c5.9,0.2,11.4-2.6,14.6-7.5
	v-41.3c-2.6-5.4-8.1-8.8-14.1-8.4H738.8z M803.8,129.3v0.9c0,21.1,11.6,31.8,26.4,31.8c7.2-0.1,14.1-2.6,19.6-7.1v6.4
	c-7.4,7-17.1,10.9-27.3,10.9c-19,0-34.5-15.4-34.5-34.4c0-0.6,0-1.3,0.1-1.9c-0.8-20,14.8-36.8,34.8-37.5c0.2,0,0.3,0,0.5,0
	c15.6-0.2,28.4,12.2,28.6,27.7c0,0.5,0,0.9,0,1.4v2.1H803.8z M835.6,122.8L835.6,122.8c0-12-6.5-17.7-14.3-17.7
	c-7.8,0-15.2,5.9-17.2,17.9h31.3L835.6,122.8z M861.5,170.4v-3.8l5.1-0.9c3-0.5,5.3-3.2,5.3-6.3v-42.5c0-3.6-1.6-5.6-4.7-5.6
	c-1.2,0-2.5,0.3-3.6,0.7l-2,0.8V108l22-9.9h2.8v15.4c5.6-11.1,12.3-15.8,19.9-15.8c6.2,0,7.8,1.6,7.8,1.6v17.2h-3.1
	c-0.4-4.2-4.2-7.2-8.3-6.8c-0.1,0-0.2,0-0.3,0c-7-0.2-13.2,4.1-15.5,10.7v39.1c0.4,3.2,2.8,5.8,6,6.3l7.4,0.9v3.8L861.5,170.4z"/>
</svg>
