<?xml version="1.0" encoding="utf-8"?>
<!-- Generator: Adobe Illustrator 24.0.1, SVG Export Plug-In . SVG Version: 6.00 Build 0)  -->
<svg version="1.1" id="Layer_1" xmlns="http://www.w3.org/2000/svg" xmlns:xlink="http://www.w3.org/1999/xlink" x="0px" y="0px"
	 viewBox="0 0 818.4 195.4" style="enable-background:new 0 0 818.4 195.4;" xml:space="preserve">
<style type="text/css">
	.st0{opacity:0.4;fill:#1D1D1B;enable-background:new    ;}
	.st1{fill:#1D1D1B;}
</style>
<path class="st0" d="M75,152.6c-3.7,0-7.1-2-9-5.1L22.6,73.2c-2.9-5-1.2-11.3,3.7-14.2l0,0c5-2.9,11.3-1.2,14.2,3.7L84,137
	c2.9,4.9,1.2,11.3-3.7,14.2C78.7,152.2,76.9,152.7,75,152.6"/>
<path class="st1" d="M184.3,112.2c-0.3-5.6-2-11.1-4.9-16c-3.8-7.5-9.9-13.6-17.4-17.5c-6.3-3.1-13.3-4.4-20.3-3.8
	c2.4-4.8,3.8-10.1,4.3-15.4c0.3-8.2-2-16.4-6.7-23.2c-2.8-4.9-6.7-9-11.4-12c-4.4-2.8-9.5-4.5-14.7-5.1c-5.6-0.6-11.2-0.1-16.6,1.3
	c-1.9,0.5-3.8,1-6,1.7l-2.4,0.8c-5.3,2.4-10.6,5.1-15.6,8.1l-14.7,9.2h-0.4c-5.3,3.3-7.1,10.2-3.9,15.7c3.2,5.5,10.3,7.5,15.8,4.3
	l0,0l24.1-13.9c2.2-1.3,4.6-2.1,7-2.4c2.4-0.3,4.8-0.1,7.1,0.5c2.4,0.6,4.7,1.6,6.7,3c2,1.6,3.7,3.5,4.9,5.7
	c1.3,2.2,2.2,4.6,2.7,7.2c0.4,2.4,0.4,4.8,0,7.2c-0.4,2.3-1.3,4.4-2.5,6.3c-1.3,2-3.1,3.6-5.1,4.8l-14.6,8.7l-6,3.6l-4,2.3
	c-5.3,3-7.1,9.7-4.1,15c2,3.4,5.6,5.6,9.6,5.5c1.9,0,3.8-0.5,5.4-1.4l7.9-4.6l20.8-11.4c2-1.2,4.3-1.9,6.6-2c2.3-0.1,4.6,0.2,6.8,1
	c4.7,1.8,8.6,5.2,11.1,9.5c2.5,4.4,3.2,9.6,2,14.5c-1.3,4.8-4.4,8.9-8.8,11.3L111,151.1l-1.8,1l-6.4,3.9l-12.6,6.8
	c-5.6,2.9-7.7,9.8-4.7,15.4c2,3.8,5.9,6.1,10.2,6.1c1.9,0,3.7-0.5,5.4-1.4l31.1-16.7l25-13.7c5.4-3,10.3-6.7,14.6-11.1
	c3.9-4,7.2-8.6,9.5-13.7C183.4,122.7,184.5,117.5,184.3,112.2 M526.1,119c5.2,0,9.3-4.2,9.3-9.3c0-5.2-4.2-9.3-9.3-9.3h-15.5V119
	H526.1z M510.5,69.5V87h14.6c4.8,0.7,9.3-2.7,10-7.5c0.7-4.8-2.7-9.3-7.5-10c-0.8-0.1-1.7-0.1-2.5,0H510.5z M504.5,132.2
	c-4.2,0.9-8.2-1.8-9.1-6c-0.2-1-0.2-2.1,0-3.1V65.6c-0.3-2.5,0.5-5.1,2.1-7c1.9-1.6,4.5-2.4,7-2h21.6c14.9,0,23.6,8.3,23.6,21.3
	c0,6.6-3.6,12.7-9.5,15.7c6.7,3,10.9,9.8,10.5,17.1c0,14.2-9.8,21.9-23.4,21.9L504.5,132.2z M594,93.2c-2.7-5.2-9.1-7.1-14.2-4.4
	c-1.9,1-3.4,2.5-4.4,4.4c-0.8,1.9-1.2,4-1.2,6h21.6c-0.1-2.1-0.6-4.1-1.5-6L594,93.2z M574.1,108.7c-0.5,6.3,4.1,11.8,10.4,12.3
	c0.6,0,1.1,0.1,1.7,0c3.4,0.1,6.8-1,9.6-3c1.4-1.3,3.3-2,5.2-2.1c3.2,0.2,5.7,2.8,5.7,6c0,2.6-2.3,5-5.5,7.2
	c-4.6,2.7-9.9,4-15.2,3.8c-13.2,0-25.7-6-25.7-28.4c0-18.1,9.8-28.4,24.1-28.4c13-0.3,23.8,10.1,24.1,23.1c0,0.6,0,1.1,0,1.7
	c0.2,2.2-0.5,4.4-1.9,6c-1.7,1.4-3.9,2-6,1.7H574.1z M622.3,88.9h-1.4c-1.6,0.2-3.2-0.1-4.7-0.8c-1.6-0.9-2.5-2.6-2.5-4.5
	c-0.1-1.9,0.9-3.7,2.6-4.6c1.5-0.7,3.1-0.9,4.7-0.7h1.4v-7.5c-0.2-2.1,0.1-4.1,0.9-6c1.2-2.2,3.5-3.5,6-3.3c2.5-0.1,4.8,1.2,6,3.3
	c0.8,1.9,1.1,4,0.9,6v7.4h4.2c1.6-0.2,3.2,0.1,4.7,0.7c1.6,0.9,2.6,2.7,2.5,4.6c0.1,1.9-0.9,3.7-2.5,4.6c-1.5,0.7-3.1,1-4.7,0.8
	h-4.2v26.6c-0.4,2.3,1.2,4.5,3.6,4.9c0.3,0,0.6,0.1,0.9,0c1.4,0,2.8,0.3,4.2,0.8c1.9,0.9,3,2.9,2.8,4.9c0.1,2.1-0.9,4-2.8,5
	c-1.9,0.8-4,1.1-6,1h-0.7c-8.2,0.7-15.3-5.3-16.1-13.5c-0.1-0.8-0.1-1.6,0-2.5V88.9L622.3,88.9z M659.7,88.9h-1.4
	c-1.6,0.2-3.2-0.1-4.7-0.8c-1.7-0.9-2.7-2.7-2.6-4.6c-0.1-1.9,0.9-3.7,2.6-4.6c1.5-0.7,3.1-0.9,4.7-0.7h1.4v-7.4
	c-0.2-2.1,0.1-4.1,0.9-6c2.1-3.3,6.5-4.3,9.8-2.3c0.9,0.6,1.7,1.3,2.3,2.3c0.8,1.9,1.1,4,0.9,6v7.4h4.2c1.6-0.2,3.2,0.1,4.7,0.7
	c1.7,0.9,2.7,2.7,2.6,4.6c0.1,1.9-0.9,3.7-2.6,4.6c-1.5,0.7-3.1,1-4.7,0.8H674v26.6c-0.4,2.3,1.2,4.5,3.6,4.9c0.3,0.1,0.6,0.1,1,0
	c1.4,0,2.8,0.3,4.2,0.8c1.8,0.9,2.9,2.9,2.8,4.9c0.1,2.1-1,4-2.8,5c-1.9,0.8-4,1.1-6,1h-0.8c-8.2,0.7-15.3-5.4-16-13.5
	c-0.1-0.8-0.1-1.6,0-2.4V88.9L659.7,88.9z M724.6,93.2c-1.7-3.6-5.4-5.9-9.3-5.7c-4-0.2-7.7,2-9.3,5.7c-0.8,1.9-1.2,4-1.2,6h21.1
	c0.1-2-0.2-4.1-0.8-6L724.6,93.2z M704.7,108.7c-0.5,6.3,4.1,11.8,10.4,12.3c0.6,0,1.1,0.1,1.7,0c3.4,0.1,6.8-1,9.6-3
	c1.4-1.3,3.3-2,5.2-2.1c3.2,0.2,5.7,2.8,5.7,6c0,2.6-2.3,5-5.5,7.2c-4.6,2.7-9.9,4-15.2,3.8c-13.2,0-25.7-6-25.7-28.4
	c0-18.1,9.8-28.4,24.1-28.4c13-0.3,23.8,10.1,24.1,23.1c0,0.6,0,1.1,0,1.7c0.2,2.2-0.5,4.4-1.9,6c-1.7,1.4-3.9,2-6,1.7H704.7z
	 M777,76c3.4-0.2,6.8,0.7,9.6,2.6c2.1,1.3,3.4,3.5,3.5,6c0.1,1.9-0.5,3.7-1.7,5.1c-1.3,1.2-3,1.9-4.7,1.9c-1.7-0.1-3.3-0.6-4.7-1.4
	c-1.6-0.9-3.5-1.3-5.3-1.4c-5.1-0.1-9.3,4-9.4,9.1c0,0.3,0,0.6,0,0.9v24.1c0.2,2.1-0.1,4.1-0.9,6c-2.1,3.3-6.5,4.3-9.8,2.3
	c-0.9-0.6-1.7-1.3-2.3-2.3c-0.8-1.9-1.1-4-0.9-6V85.7c-0.2-2.1,0.1-4.1,1-6c1.3-2.1,3.6-3.3,6-3.2c1.6,0,3.2,0.5,4.5,1.6
	c1.2,1.1,1.9,2.6,2,4.2c3.4-3.8,8.2-6,13.3-6L777,76z"/>
<path class="st0" d="M299.4,132.7c-2.8,0.1-5.5-1.4-6.9-3.8c-1-2.1-1.3-4.4-1.1-6.7V90.5l-11.1,22c-1.8,3.5-3.6,5.5-7.6,5.5
	c-4,0-6-2-7.6-5.5l-11.1-22v31.6c0.2,2.3-0.1,4.6-1.1,6.7c-2.4,3.8-7.4,5-11.2,2.7c-1.1-0.7-2-1.6-2.7-2.7c-1-2.1-1.4-4.4-1.1-6.7
	V65c-0.3-2.8,0.6-5.5,2.5-7.6c1.4-1.4,3.4-2.2,5.4-2.2c1.7-0.1,3.3,0.4,4.8,1.3c1.7,1.3,3,2.9,3.9,4.8l18.1,34.9l18.1-34.9
	c0.9-1.9,2.3-3.5,3.9-4.8c1.4-0.9,3.1-1.4,4.8-1.3c2,0,4,0.7,5.4,2.2c1.8,2.1,2.7,4.8,2.3,7.6v57.1c0.4,2.2,0.3,4.6-0.4,6.7
	C305,131.3,302.3,132.8,299.4,132.7z M339.7,132.7c-5,0.2-9.8-1.6-13.4-5.1c-4.3-4.2-6.5-10.1-6-16.1v-26c-0.2-2.2,0.1-4.4,1-6.4
	c2.2-3.6,6.9-4.7,10.5-2.5c1,0.6,1.9,1.5,2.5,2.5c0.9,2,1.2,4.2,1,6.4v24.1c-0.4,4.7,3.1,8.9,7.9,9.3c4.7,0.4,8.9-3.1,9.3-7.9
	c0-0.5,0-1,0-1.4V85.5c-0.2-2.2,0.1-4.4,1-6.4c2.2-3.6,6.9-4.7,10.5-2.5c1,0.6,1.9,1.5,2.5,2.5c0.9,2,1.2,4.2,1,6.4v37.2
	c0.4,2.2,0.2,4.4-0.5,6.4c-1.4,2.3-3.9,3.6-6.5,3.5c-1.8,0-3.5-0.6-4.8-1.7c-0.9-0.9-1.6-2-1.9-3.3c-3.7,3.4-8.5,5.3-13.6,5.2
	L339.7,132.7z M402.6,132.7c-6.2,0.1-12.2-2-16.9-6c-6-6.1-9-14.4-8.4-22.9c-0.7-8.5,2.4-16.9,8.4-22.9c4.7-4,10.7-6.1,16.9-6
	c3.9-0.1,7.7,0.8,11.1,2.8c3.2,1.6,7,4.4,7,8.3c0,1.9-0.8,3.6-2.1,4.9c-1.2,1.2-2.9,2-4.7,2c-1.9-0.1-3.7-0.8-5.1-2
	c-1.7-1.4-3.8-2.2-6-2.3c-2.8-0.1-5.6,1.2-7.3,3.4c-2.3,3.4-3.3,7.6-3,11.7c-0.4,4.2,0.6,8.5,3,12c1.8,2.2,4.5,3.5,7.3,3.4
	c2.2,0,4.3-0.8,6-2.2c1.4-1.3,3.2-2,5.1-2.1c3.9,0,7.1,3.2,7,7.2c0,0,0,0,0,0.1c0,3-2.3,6-7,8.4c-3.4,1.9-7.3,2.8-11.2,2.7
	L402.6,132.7z M468.8,132.7c-2.7,0.2-5.2-1.2-6.5-3.6c-0.9-2-1.2-4.2-1-6.4V98.6c0.4-4.7-3.1-8.9-7.9-9.3c-4.7-0.4-8.9,3.1-9.3,7.9
	c0,0.5,0,1,0,1.4v24.1c0.2,2.2-0.1,4.4-1,6.4c-2.3,3.6-7,4.7-10.6,2.4c-1-0.6-1.8-1.5-2.4-2.4c-0.8-2-1.2-4.2-1-6.4V65.3
	c-0.2-2.2,0.1-4.4,1-6.4c1.3-2.4,3.9-3.8,6.6-3.6c2.7-0.2,5.2,1.2,6.5,3.6c0.8,2,1.2,4.2,1,6.4v14.9c3.5-3.3,8.1-5.1,12.9-4.9
	c5-0.2,9.9,1.6,13.5,5.1c4.2,4.2,6.4,10.1,6,16.1v26.3c0.1,2.2-0.4,4.4-1.4,6.4c-1.2,2.2-3.5,3.6-6,3.6H468.8z"/>
</svg>
