<?xml version="1.0" encoding="utf-8"?>
<!-- Generator: Adobe Illustrator 24.0.1, SVG Export Plug-In . SVG Version: 6.00 Build 0)  -->
<svg version="1.1" id="Layer_1" xmlns="http://www.w3.org/2000/svg" xmlns:xlink="http://www.w3.org/1999/xlink" x="0px" y="0px"
	 viewBox="0 0 818.4 195.4" style="enable-background:new 0 0 818.4 195.4;" xml:space="preserve">
<style type="text/css">
	.st0{fill:#1D1D1B;}
</style>
<path class="st0" d="M745.5,90.2c-5.9,3.5-12.8,5-19.6,4.5h-8.7l6.5-35.9h6.5c5.6-0.4,11.3,0.8,16.2,3.5c4.1,2.7,6.5,7.4,6.2,12.3
	C753.2,80.8,750.5,86.6,745.5,90.2 M230.1,134.9h-66.8l4.4-23.4h42l4.8-26.5h-41.6l4.1-23.2h66.9L230.1,134.9z M781.4,42
	c-13.4-7.6-28.7-11-44.1-10h-51l-18.9,102.9h-66.8l4.1-23.4H645l4.8-26.2h-40.3l4.5-23.5h41.6l5.6-30.2h-84.4l-17.9,97.8h-31
	L545.8,32h-44.1l-17.9,97.8h-30.3L471.4,32h-44.1l-19,102.9h-67.4l4.1-23.4h40.6l4.8-26.2h-40.2l4.1-23.5h42l5.5-30.2H139.1
	l-14.8,81.6L94.3,32H48.5L24.1,165.3h43.7l15.2-84.1l28.9,84.1h156.2l18.5-102.9h24.4l-19,102.9h412.7l12.1-65.1l19.3,65.1H780
	l-20-53.6l4.5-1c9.2-1.8,17.5-6.6,23.5-13.8c5.7-7.8,8.6-17.2,8.3-26.8c0.4-11.4-5-22.2-14.5-28.6"/>
</svg>
