<?xml version="1.0" encoding="utf-8"?>
<!-- Generator: Adobe Illustrator 24.0.1, SVG Export Plug-In . SVG Version: 6.00 Build 0)  -->
<svg version="1.1" id="Layer_1" xmlns="http://www.w3.org/2000/svg" xmlns:xlink="http://www.w3.org/1999/xlink" x="0px" y="0px"
	 viewBox="0 0 637.7 195.4" style="enable-background:new 0 0 637.7 195.4;" xml:space="preserve">
<style type="text/css">
	.st0{fill:#1D1D1B;}
	.st1{opacity:0.4;fill:#1D1D1B;enable-background:new    ;}
</style>
<path class="st0" d="M264.6,160.6l18.5-121.8h44l-18.5,121.8H264.6z M120.1,160.6l61.5-121.8H230l23.6,121.8h-46.2l-1.6-15.3h-32.6
	l-6.1,15.3H120.1z M184.8,116.3h18.5l-1.6-13.8c-0.6-5.4-1.1-10.8-1.3-16.3c-0.2-3.5-0.2-7,0-10.5h-0.6c-0.8,3.2-1.8,6.8-2.9,10.5
	c-1.1,3.7-3.3,9.2-6.2,16.3L184.8,116.3z M125,87.1c-3-3.5-6.7-6.5-10.8-8.6c-3.9-1.9-8.2-2.9-12.5-2.8c-6.8-0.2-13.4,2.1-18.5,6.6
	c-5.1,4.6-8.4,10.9-9.2,17.7c-1.3,6,0,12.2,3.6,17.1c3.9,4.6,9.7,7,15.6,6.5c4.5-0.1,9-1.1,13.1-2.8c5.4-2.3,10.6-5.2,15.4-8.6
	l-8.4,46.2c-4.8,1.9-9.7,3.3-14.8,4.3c-10.3,2.1-20.9,2-31.1-0.6c-4.9-1.1-9.6-3-13.9-5.6c-9.1-5.7-16.1-14-20.2-23.9
	c-4.1-10.2-5.3-21.4-3.4-32.3c1.3-8.9,4.2-17.5,8.6-25.3c4.2-7.9,9.8-15,16.6-20.9c6.7-5.9,14.4-10.5,22.8-13.6
	c8.4-3.1,17.3-4.7,26.3-4.6c4.8-0.1,9.6,0.4,14.2,1.5c4.6,1,9,2.5,13.2,4.6L125,87.1z M468.2,161.1l61.6-121.8H578l23.6,121.8h-46.2
	l-1.5-15.3h-33.2l-6.5,14.9H468L468.2,161.1z M532.9,116.8h17.9l-1.7-13.8c-0.6-7-1.1-12.4-1.2-16.3c-0.2-3.5-0.2-7,0-10.5h-0.6
	c-0.8,3.6-1.8,7.1-2.9,10.5c-1.1,3.4-3.3,9.2-6.2,16.3L532.9,116.8z M347,37.1h53.9L432,96.8h-53.9L347,37.1z"/>
<path class="st1" d="M434,37.1l-21.4,22.8l19.1,37l0,0l55.5-59.7L434,37.1z M317.9,162.3h54l55.5-59.6h-53.8L317.9,162.3z"/>
<path class="st0" d="M427.8,102.6L427.8,102.6l-34.3,37l11.8,22.7h53.4L427.8,102.6z"/>
</svg>
