<?xml version="1.0" encoding="utf-8"?>
<!-- Generator: Adobe Illustrator 24.0.1, SVG Export Plug-In . SVG Version: 6.00 Build 0)  -->
<svg version="1.1" id="Layer_1" xmlns="http://www.w3.org/2000/svg" xmlns:xlink="http://www.w3.org/1999/xlink" x="0px" y="0px"
	 viewBox="0 0 1530.5 300" style="enable-background:new 0 0 1530.5 300;" xml:space="preserve">
<style type="text/css">
	.st0{fill:#1D1D1B;}
</style>
<path class="st0" d="M176.2,29c-7.2-2-13.7-5.8-19.1-10.9c-5.8,4.9-12.7,8.3-20,10l-25,6.7c-4.2,1.7-9.1,3.3-14.1,5
	c-5,1.7-7.6,4.1-12.8,6.7l-5,2.4c-1.7,1.7-3.3,2.6-4.1,4.2c-0.7,0.6-1,1.5-0.9,2.4l1.7,4.2c1.1,1.7,1.7,3.7,1.7,5.8
	c-0.1,0.9-0.8,1.6-1.7,1.7l-2.4,1.7c-4.2,3.3-7.6,5.8-9.2,7.4c-2.9,2.7-4.9,6.2-5.8,10c-0.7,3.7-0.2,7.5,1.4,10.9
	c1.7,2.6,3.3,7.6,5.8,11.7c2.4,4.1,5,9.1,5.9,10.8c1.1,2.6,1.7,5.5,1.7,8.3c0,0.9-1.7,1.7-3.3,3.3l-3.3,3.3c-3.2,4-6,8.3-8.3,12.8
	c-2.4,5-4.1,10.3-5,15.8c-1,5.8-0.7,11.8,0.8,17.5c1.7,4.2,2.6,8.3,4.2,14.1c4,10.5,9.6,20.4,16.7,29.2c7,7.6,15.1,14.1,24.1,19.1
	l27.5,15.9c9.7,5.2,18.9,11.3,27.5,18.2c3.3-2.9,6.9-5.4,10.8-7.4l12.8-6.7l24.1-12.8c7.7-4.2,15-9.2,21.7-14.9
	c6.8-5.4,12.7-11.9,17.5-19.1c5.3-7.8,9.3-16.5,11.7-25.7c2.6-9.2,3.1-18.9,1.7-28.4c-1.7-8.3-5.1-16.3-10-23.2l-4.6-4.5
	c-1.2-1.3-2.3-2.7-3.3-4.1c0.4-2.3,0.9-4.5,1.7-6.7l5-10c3.9-7,6.7-14.6,8.3-22.5c0-4.1-2.4-8.3-9.1-15l-7.6-5.8
	c-0.4-0.9-1-1.8-1.7-2.6c1-4,2.5-7.8,4.2-11.6c-11.2-9.9-24.7-17.1-39.2-20.8L188,33.1C182.1,31.4,179.7,29.8,176.2,29z M171.2,34.8
	c4.2,1.7,8.4,3.1,12.8,4.1l12.8,4.2c8.1,2.6,15.8,5.9,23.2,10l5,2.4c2.6,1.7,3.3,2.6,3.3,3.3c-0.3,1.8-0.8,3.5-1.7,5l-2.4,5.8
	l12.8,10c5.8,5,8.3,8.3,8.3,10c-1.2,7.1-3.5,14-6.8,20.4l-9.9,20.8c4.3,3.9,8.2,8.2,11.6,12.8c4,4.5,6.6,10,7.6,15.9
	c3.2,14.2,1.7,29.1-4.2,42.4c-2.8,5.9-6.2,11.5-10,16.7c-4.1,4.1-7.4,9.1-11.6,12.8c-6.3,4.8-13,9.1-20,12.8l-25.9,14.3l-8.3,4.2
	c-7.6,4.1-10.9,6.5-12.8,5.8c-1.9-0.8-3.3-1.7-5.9-3.3c-2.6-1.7-4.1-4.1-5-4.1c-3.3-1.7-8.3-4.2-15.8-8.3
	c-7.4-4.1-12.8-6.7-15.8-8.3c-10.4-5.5-19.7-12.8-27.5-21.7c-4.1-4.4-7.5-9.4-10-14.9c-3.3-6.1-6.1-12.5-8.3-19.1
	c-5.3-13.7-4.1-29.1,3.3-41.7c1.9-3.7,4.5-7,7.6-9.9l9.1-8.3c-1.7-3.3-2.6-7.6-4.2-10.9l-9.9-19.1c-1.7-3.3-2.6-6.7-3.3-8.3
	c-0.2-5.4,2.7-10.3,7.4-12.8l7.4-4.2c2.6-1.7,4.2-4.1,5-4.1s0-2.6-1.7-5c-1.7-2.4-0.8-1.7-1.7-2.4l-1.7-2.6c-0.8-0.8-0.8-1.7,0-3.3
	c11-7.1,23.1-12.4,35.8-15.8l19.1-5c6.1-0.9,11.9-3.5,16.7-7.4l7.4,4.1L171.2,34.8z"/>
<path class="st0" d="M169.6,77.3c1.7-1.7,4.2-1.7,6.7-3.3l4.2-1.7c0.6-0.1,1.2-0.4,1.5-0.9c0.5-0.4,0.8-1,0.9-1.7h-4.1
	c-1.7,0-4.2,1.7-9.2,2.6c-3.2,1.2-6.6,1.8-10,1.7c-4.7-0.2-9.5-0.8-14.1-1.7l-7.8-1.7c-0.9,0-0.9,0.8-1.7,0.8c-0.8,0,0,1.7,0.8,1.7
	l3.3,1.7c2.6,1.7,4.2,1.7,5.9,4.2l1.7,1.7l1.7,1.7l1.2,2.2v1.7l-3.3,1.7c-1.7,1.7-4.1,2.4-5,4.1h-2.4l-3.3-3.3
	c-1-1.2-2.6-1.9-4.2-1.7c-2-0.5-4.1-0.2-5.8,0.9c-1.7,1.7-3.3,2.4-4.1,4.1c-0.8,1.7,0,2.4,0,4.1s1.7,1.7,1.7,2.6s1.7,0.8,4.1,0.8
	c2.4,0,0.9-0.8,0.9-1.7l-1.7-2.4c0-0.9,0-1.7,0.8-1.7l1.7-1.7l2.4,0.8c1.7,0.9,1.7,1.7,2.6,1.7c0.9,0,1.7,1.7,1.7,2.6s0,1.7-0.9,1.7
	c-0.8,1-2,1.6-3.3,1.7l-1.7,1.7c-3.4,3.4-5.2,8.1-4.9,12.8c-0.1,3,0.8,5.9,2.4,8.3c1.5,2.4,3.5,4.4,5.8,5.9l2.6,1.7
	c1.7,0.8,1.7,1.7,1.7,1.7v38.5c-3.3-1.6-5.9-4.2-7.6-7.4l-2.4-5c-1.7-1.7-1.7-4.1-2.4-5c-0.8-0.9-1.7-2.4-2.6-4.1s-1.7-1.7-2.4-1.7
	l-0.9,1v1.7c1.3,1.3,1.9,3.2,1.7,5c0.7,1.9,1,3.9,0.9,5.9c-0.1,2.7-1,5.3-2.6,7.4c-1.2,2.1-2.6,4-4.1,5.8c0,0.9,0,0.9,0.8,0.9h0.9
	l3.3-1.7c1.7-0.9,2.4-1.7,4.1-1.7c2.6,0.1,5.1,0.7,7.4,1.7c1.7,1.7,4.2,3.3,5,5.8c0.7,1,1,2.2,0.9,3.3c0,1.7-0.9,2.6-1.7,2.6
	s-4.2,0.8-5-0.9c-0.5-0.4-0.8-1-0.9-1.7c0,0,0-1.7,0.9-1.7c0.5-0.4,0.7-1,0.8-1.7v0.9c0-0.9-0.8-0.9-1.7,0l-1.5,0.8
	c-1.7,0.6-2.8,2.4-2.6,4.2c-0.6,1.4-0.3,3.1,0.9,4.1c1.2,1.3,2.6,2.5,4.1,3.3c3.1,0.5,6.4-0.1,9.1-1.7c1.7,2.4,3.3,4.1,4.2,5.8
	c2.1,1.6,4.3,3,6.7,4.2c0.7,0.5,0.8,1.5,0.3,2.2c-0.1,0.1-0.2,0.2-0.3,0.3c-1.2,2.1-2.6,4.1-4.2,5.9c-1.6,1.3-3.7,1.9-5.8,1.7
	c-1.8-0.2-3.5-0.8-5-1.7c-1.2-1-1.9-2.6-1.7-4.2l0.8-1.7c0.9-0.8,0.9-1.7,1.7-1.7c0.8,0,1.7-1.9,0.5-1.9s-5,0-6.7,1.7
	c-1.7,1.7-1.7,2.4-1.7,5c0,1.8,0.6,3.6,1.7,5c1.6,2.6,4.4,4.1,7.4,4.1h7.6c2.5-0.8,4.8-2.2,6.7-4.1l1.7-1.7l1.5-1.7l7.6,5.8
	c2.1,1.8,4.7,2.9,7.4,3.3c0.9,0,1.7,0,1.7-0.8l-7.4-6.7c-2.5-2.8-4-6.3-4.2-10c1.2-0.9,2.7-1.5,4.2-1.7l3.3-0.9l2.4-1.7l2.6-1.7
	c2.5-1.9,4.5-4.5,5.8-7.4c1.2-2.6,2.1-5.5,2.4-8.3l4.2-4.1c2.2-2.1,3.9-4.7,5-7.6c1.7-4.5,2.3-9.4,1.7-14.1
	c-0.7-4.1-2.1-8.1-4.2-11.7c-3.4-4.3-7.8-7.7-12.8-9.9l4.1-10.9c0.7-1.6,1-3.3,0.9-5l0.8-5.8c0.8,0,1.7,0.9,2.4,1.7l1.7,1.7
	c0.4,0.5,1,0.8,1.7,0.9h0.9l-5.9-5c-0.8-1.3-1.4-2.7-1.5-4.2c-0.9-3.8-0.9-7.8,0-11.7h-1.7l-2.6,2.6c-0.8,0.8-1.7,1.7-2.4,1.7
	c-0.8,0-1.7-0.9-2.6-2.6l-2.4-4.1l-6.7-4.1C162.2,83,163.3,80.6,169.6,77.3z M163.9,90.1l1.7,1.7c0.8,0,0.8,0.9,0,1.7h-0.9l-3.3-0.8
	c0-0.6-0.3-1.2-0.8-1.7c0-0.9,0-1.7,0.8-1.7s0.9,0.4,2.1,1.2L163.9,90.1z M163.9,99.4c0.8,0,1.7,0.8,3.3,1.7l3.3,2.4
	c1.7,1.7,1.7,3.3,2.4,5.9c0.5,2.8,0.3,5.6-0.8,8.2c-0.6,2.6-1.5,5.1-2.6,7.6c-1.7,2.4-2.4,4.1-4.1,4.1h-3.3l-1.7-1.7v-27.1
	c0-0.8,1.7-0.8,2.8-0.8L163.9,99.4z M159.6,146c1.7-0.9,3.3,0.8,5.9,1.7c2.3,2,4,4.6,5,7.4c1.5,2.9,2.6,6.1,3.3,9.2
	c0.7,3.1,0.1,6.4-1.7,9.1c-0.8,1.7-2.4,2.9-4.2,3.3c-2.6,1.1-5.6,1.4-8.3,0.8L159.6,146z M166.3,140.1c0.9-1.5,0.9-1.5,1.7-1.5
	l1.7-0.9c3.7,1.2,7.1,3.2,10,5.8c2.5,2.9,4.5,6.3,5.8,10c0.9,3,0.9,6.2,0,9.2c-0.8,3.2-1.7,4.1-4.1,4.9c-0.9-1.8-1.5-3.8-1.7-5.8
	l-1.7-5c-1.2-2.9-2.6-5.7-4.1-8.3c-1.7-3.3-4.3-6.1-7.6-8V140.1z M147.2,92.2c0-0.8,0.9-1.7,1.7-2.4c0.8-0.8,1.7-1.7,3.3-1.7h1.7
	c0.9,0,0.9,0,0.9,0.9c0.1,0.6,0.4,1.1,0.8,1.5c0,0.9-0.7,1.7-1.7,1.7l0,0H147.2z M136.4,106.4c0.8,0,1.7,0,1.7,0.8
	c0.8,4.2,0.8,8.6,0,12.8v3c0,0.9-0.9,0.9-1.7,0.9c-1.3,0-2.5-0.6-3.3-1.7c-1.4-1.9-2-4.3-1.7-6.7c0.1-2,0.7-4,1.7-5.8
	C135.5,106.4,136.4,106.4,136.4,106.4z M145.5,134.7h3.3c1.7,0,2.6,0,3.3,0.9c0.8,0.9,0.9,1.7,0,1.7l-1.7,0.8h-4.1
	C145.8,137,145.4,135.9,145.5,134.7z M148.8,143.8c1.7,0,2.6,0.9,4.2,1.7v32.5c0,0.9-0.9,0.9-1.7,0.9l-2.6-0.9
	c-2.4-0.8-4.1-1.7-4.1-2.4v-30.8L148.8,143.8z M153.1,187.2c0,0.8,0.8,1.7,0.8,2.4c0,0.8-0.8,3.3-1.7,3.3c-0.9,0-1.7-0.9-3.3-1.7
	c-1.8-1.7-2.4-4.3-1.7-6.7c2.3,0.1,4.6,0.6,6.7,1.7C152.2,185.5,153.1,185.5,153.1,187.2z M145.5,100.5c0-0.8,1.7-1.7,4.2-1.7h4.1
	v20c0.1,2.3-0.1,4.5-0.8,6.7l-2.6,1.7c-1.5-0.1-3-0.6-4.1-1.7v-25H145.5z M171.2,184.6c0,0.9-1.7,1.7-1.7,3.3l-4.2,3.3
	c-1.7,1.7-2.4,1.7-3.3,1.7c-0.9,0-1.7-0.9-1.7-2.4c-0.1-1.5,0.2-2.9,0.9-4.2l9.1-1.7c0.3-0.8,1-0.8,0.3,0H171.2z"/>
<path class="st0" d="M209.6,59.8c-0.8-1.6-2.4-2.6-4.1-2.6c-1.7,0-1.7,0.9-2.4,1.7l-2.6,4.2c-0.9-0.1-1.6-0.8-1.7-1.7l-3.3-4.2
	c-1.7-1.7-4.1-3.3-6.7-5.8l-7.4-4.2c-4.7-3-10.3-4.2-15.8-3.3l-2.2,2.1h-2.4c-0.9,0-0.9-2.4-1.7-4.1l-1.7-3.3l-0.9,2.4
	c-1.5,1.7-1.5,3.3-2.4,3.3l-5-1.7l-5-0.8c-5.2,0.7-10.3,2.4-14.9,5c-4.2,1.9-7.9,4.8-10.9,8.3l-3.3,3.3c-1.7,0.8-1.7,1.7-1.7,1.7
	l-1.4-1.4l-1.7-1.7c-0.8-1.7-1.7-1.7-3.3-1.7s-4.1,0.8-4.1,2.4c-0.8,1.3-0.8,2.9,0,4.2c1.7,0,1.7,0.8,2.4,0.8s1.7,0,1.7-0.8
	s0-1.7-0.8-1.7c-0.5-0.4-0.8-1-0.9-1.7l1.7-1.7c0.9,0.4,1.8,1,2.6,1.7c0.6,0.7,0.9,1.6,0.8,2.4c-0.1,1.5-0.7,2.9-1.7,4.1
	c-2.2,3.8-4.7,7.5-7.4,10.9c-1.7,2.4-3.3,3.3-4.1,3.3c-0.8,0-0.9-0.9-1.7-1.7c-0.8-0.8-0.9-1.7-1.7-1.7l-1.7-0.9h-1.7
	c-0.9,0-1.7,0-1.7,0.9c-0.8,0.6-1.4,1.4-1.7,2.4c0,0.9,0,0.9,0.8,0.9c0.8,0,0.9,0.8,1.7,0.8c0.8,0,0.9-1.7,1.7-1.7
	c0.9,0,1.7,0.7,1.7,1.7l0,0c0,1.3-0.6,2.6-1.7,3.3c-1.4,1.1-3.2,1.7-5,1.7l-5,5c0,0-0.8,0,0,0.8c0.8,0.8,0,0.9,0.9,0.9
	c11.7,4.1,15.8,9.1,12.8,14.1c-0.9,1.7-1.7,1.7-4.2,2.6s-2.4,0-3.3-0.9c-0.9-0.9-0.8-0.8-0.8-1.7l0.8-1.7c0.5-0.4,1.1-0.7,1.7-0.8
	h1.7c0.9-0.9,0.9-1.7,0-1.7c-0.4-0.5-1-0.8-1.7-0.9c-1.7,0-1.7,0.9-2.4,1.7s-0.9,1.7,0,3.3c0.9,1.7,1.7,1.7,1.7,3.3s1.7,1.7,3.3,1.7
	c3.7,0.8,7.3,1.9,10.8,3.3c2.9,2.4,5.4,5.2,7.4,8.3c2.8,4.8,4.3,10.2,4.2,15.8c0,5.3-1.5,10.5-4.2,15c-1.9,2.8-4.4,5.1-7.4,6.7
	c-3.2,1.4-6.6,1.9-10,1.7c-2.2-0.6-4.1-1.8-5.8-3.3c-1.3-1.3-1.9-3.2-1.7-5c0-1.7,1.7-3.3,2.4-4.2c0.8-0.9,2.6-1.7,4.2-0.8l1.7,1.7
	v1.7c0,0.8-0.9,0.8-1.7,0.8c-0.8,0-0.9,0.9,0,1.7l0.8,0.9c0.9,0,0.9,0,1.7-0.9c0.8-0.6,1.4-1.4,1.7-2.4c-0.1-1.8-0.7-3.5-1.7-5
	c-0.8-0.9-0.8-1.7-0.8-3.3v-4l-0.9-0.8h-1.7c-0.8,0.8,0,1.5,0.9,1.5c0.4,0.5,0.7,1,0.8,1.7c0,0.9-0.7,1.7-1.7,1.7l0,0
	c-1.7,0.7-3.4,1.6-5,2.6L84,148l-0.8,2.4l-0.9,4.2l0.9,2.4c0.7,0.6,0.8,1.6,0.2,2.4c-0.1,0.1-0.1,0.2-0.2,0.2
	c-0.1,0.6-0.4,1.2-0.9,1.7c-0.8,0.8-1.7,1.7-2.4,1.7s-1.7,0-1.7-0.9v-0.6c0-0.9,0-0.9-0.8-0.9h-1.7c-0.9,0.9-0.9,0.9-0.9,1.7v1.7
	c0.1,0.9,0.8,1.6,1.7,1.7c0.9,1.7,1.7,1.7,1.7,1.7s1.7-0.9,3.3-1.7L84,164h1.7l4.2,1.7c1.7,0.8,1.7,0.8,0.8,1.7l-1.7,0.8l-3.3,4.2
	c-1.9,2.5-3.3,5.3-4.1,8.3L79,179h-1.7c-0.9,0-1.7,0-1.7,0.8s-1.7,1.7-1.7,1.7v1.7c0,0.9,0,1.7,0.8,1.7l1.7,0.9h1.7v-1l-0.8-0.8
	c-0.7-0.7-1-1.6-0.9-2.6c0.9-0.8,1.7-1.7,2.4-0.8s1.7,0.8,2.6,1.7c0.7,1.8,1,3.8,0.8,5.8c0,3.3,0,5,0.9,5.8c0.5,3.1,1.9,6,4.1,8.3
	l5.9,5.9c1.6,1.3,3.7,1.9,5.8,1.7h8.3c0.8,0.8,1.7,1.7,1.7,2.4c0.4,1.4,0.4,2.9,0,4.2l-3.3,3.2c-1.5,1.6-1.8,3.9-0.9,5.9l1.7,1.7
	h3.3c0.9,0.3,2-0.2,2.3-1.2c0-0.1,0-0.2,0.1-0.2c0.9-1.7,0-1.7-1.7-1.7l-0.8,0.8c-0.4,0.5-1,0.8-1.7,0.9c-0.9-0.1-1.6-0.8-1.7-1.7
	c-0.9,0-0.9-0.9-0.9-1.7s1.7-3.3,4.2-3.3h1.7c0.8,0,1.7,0.8,3.3,1.7c2.7,3,4.9,6.4,6.7,10l2.4,5.8c1.7,1.7,1.7,4.2,3.3,5
	c1.7,0.8,4.1,3.3,5.8,5c2.3,1.3,4.9,2.2,7.6,2.4l6.7,0.9c2.3,0.9,4.1,2.7,5,5l4.1,6.7l3.3-5.9c1.7-2.4,2.4-4.1,4.1-4.1
	c1.7,0,1.7-0.9,3.3-0.9h2.6c3.5-0.7,6.8-1.8,10-3.3c2.8-1.5,5.3-3.5,7.4-5.8c1.3-1.4,2.2-3.1,2.4-5l2.6-5c1.6-3.5,3.5-6.9,5.8-10
	l1.7-1.7c0.6-0.1,1.2-0.3,1.7-0.8h5c1.2,1,1.8,2.6,1.7,4.1l-4.1,1.7c-0.9,0.9,1.7,1.7,4.1,1.7c1.9-2,2.2-5.1,0.8-7.4l-2.4,0.8
	l-0.8-1.7c-0.9-1.5,0-3.2,0.8-5.8l10-1.7c2.6-0.6,5.1-1.4,7.4-2.4c4.5-2.9,7.5-7.6,8.3-12.8l0.8-5.8c0-2.6,0-4.2,0.9-5l3.3-0.9
	l1.7,2.6v0.8h1.7v-3.3c-0.1-0.6-0.4-1.2-0.9-1.7l-4.1,0.9c-1.3,0-2.5-0.6-3.3-1.7l-2.4-2.6c-1.5-2.9-3.2-5.7-5-8.3l-1.7-1.7
	c-0.9-0.8-0.9-0.8-0.9-1.7c0-0.9,0.9-0.8,1.7-0.8l5.9-1.7c0.8,0,0.8,0,1.7,0.9l1.5,1.5l1.7,1.7l1.7,0.9h1.7l1.7-0.9
	c0.9,0,0.9-0.8,0.9-1.7c0-0.9,0-1.5-0.9-1.5h-1.7l-0.8,1.5c0,0.5-0.4,0.9-0.9,0.9c-1.7,0-1.7-0.9-2.4-1.7l-0.9-1.7v-3.1l0.9-1.7
	c0.8-3.3,0.8-5.9-0.9-7.6l-1.5-1.7l-2.3-1.9c-1.5-1-2.9-2.1-4.2-3.3c-0.6-0.7-0.9-1.6-0.8-2.4c0-0.9,0.7-1.7,1.7-1.7l0,0
	c0.8,0,0.8-0.9,0.8-0.9s-0.8-0.8-1.7-0.8l-2.4,1.7h-0.9c-0.6,0.7-0.9,1.6-0.8,2.4c0,0.9,0.8,1.7,1.7,4.2c0,0,0,0.8-1.7,0.8
	s-1.7,1.7-1.7,1.7l-0.9,1.7c0,1.7,0,1.7,0.9,2.6c0.9,0.9,1.7,0.8,1.7,1.7c0,0.9,1.7,0,1.7-0.9c0-0.9,0-0.8-0.9-1.7
	c-0.5-0.4-0.7-1-0.8-1.7c0.1-0.9,0.8-1.6,1.7-1.7c0.7-0.6,1.6-0.9,2.4-0.8c0.9,0,1.7,0.8,2.6,1.7c0.9,0.9,1.7,1.7,1.7,2.4
	c1.7,5-1.7,8.3-7.6,10h-2.4c-1.7,0-2.6-0.8-3.3-0.8c-2.4-1.2-4.6-2.6-6.7-4.2c-1.8-1.9-3.2-4.2-4.1-6.7c-1-1.8-1.9-3.8-2.6-5.8
	c-0.7-2.4-1-4.9-0.8-7.4l1.7-10c1.1-3.9,3.4-7.4,6.5-10c3-2.5,6.4-4.4,10-5.8l4.2-1.7c1.7-1.2,3.7-1.2,3.7-1.2s1.7-1.7,1.7-2.6
	s0-2.4-0.8-3.3c-0.7-0.6-1.6-0.9-2.6-0.8c-0.9,0.1-1.6,0.8-1.7,1.7c0,0.8,0,0.8,0.9,1.7h2.4l0.8,1.7c0,0.8,0,1.7-0.8,1.7
	c-0.5,0.4-1.1,0.7-1.7,0.8l-1.7,0.9h-2.6c-1.7-0.9-1.7-1.7-1.7-4.2c-0.7-2.1-0.1-4.4,1.7-5.8c1.4-1.7,2.9-3.2,4.6-4.5l5.8-2.4
	c1.7-0.9,1.7-1.7,2.6-1.7l-0.9-0.9l-4.1-1.7c-1.7-0.8-4.1-1.5-6.7-2.4c-2.6-0.9-1.7-1.7-2.4-2.4c-0.8-0.8-0.9-2.6,0.8-3.3
	c1.7-0.8,0.9,0,1.7,0.8c0.4,0.5,1,0.8,1.7,0.9c0.9-0.9,0-1.7-0.8-2.6l-1.7-1.7c-0.9,0-1.7,0.9-2.6,0.9l-1.7,1.7v-1.8
	c-0.8,0.8-2.4-1.7-5-5c-4.1-0.9-5.8-4.2-7.4-6.7c-1.2-2-1.7-4.3-1.7-6.7c1.7-1.7,1.7-2.4,3.3-1.7l1.7,0.9h0.8l-0.8,2.4l-0.9,1.7
	c0,0.4,0.3,0.8,0.8,0.8c0,0,0.1,0,0.1,0h1.7c0.9-0.1,1.6-0.8,1.7-1.7c0.6-0.7,0.9-1.6,0.8-2.4C211.9,61.3,210.8,60.5,209.6,59.8z
	 M155.5,56.5c0.4-0.5,1-0.8,1.7-0.9c0.9,0.1,1.6,0.8,1.7,1.7v1.5c0,0.8-0.9,0.8-1.7,0.8c-0.8,0-2.4-0.8-2.4-1.7
	C154.7,57,155.5,57.2,155.5,56.5z M201.4,68l6.5,9.2c2.1,3.1,4.6,6,7.6,8.3c0.8,0.8,2.4,1.7,5.8,4.1s4.2,2.4,4.2,3.3s0,0.8-0.9,1.7
	l-1.7,0.8l-1.7,0.9c0,0.8-0.8,0.8-1.7,0.8c-0.9,0-0.8-0.8-1.7-1.7l-1.7-1.7l-1.5-1.7c0.9-0.8,0-0.8-2.4-0.8c-1.6,0-3.1,0.6-4.2,1.7
	l-4.1,3.3h-2.1l-1.7-0.9c-0.4,0.5-0.4,1.2,0,1.7c0.1,0.6,0.4,1.2,0.9,1.7h3.3l0.8,0.9l0,0l1.7,1.7c0.8,0.8,1.7,0.8,3.3,0
	c1.7-0.8,0.8-0.9,1.7-1.7c0.9-0.8,0-1.7-0.9-1.7l-2.4,1.7h-0.9c-0.6-0.7-0.9-1.6-0.8-2.6c0.2-1,0.8-1.9,1.7-2.4
	c1.1-1.1,2.6-1.7,4.1-1.7c1.5,0.6,2.7,1.8,3.3,3.3v3.3c-1.3,3-1,6.4,0.9,9.1l0.8,1.7c0,0.9,0,0.9-0.8,0.9c-2.1,0.5-4.1,1.3-5.9,2.4
	c-2.8,1.5-5.3,3.5-7.4,5.8c-2,3-3.4,6.4-4.1,10c-1.3,4.1-1.9,8.5-1.7,12.8c0.5,3.1,1.3,6.2,2.4,9.1l5,7.6c1.7,1.7,2.4,1.7,4.1,3.3
	l5,3.2c4.9,3,8.8,7.5,10.9,12.8c2.6,6.9,2.9,14.4,1,21.4c-0.7,2.8-2.1,5.4-4.1,7.6c-1.9,2.3-4.6,3.7-7.6,4.1
	c-4.6,1-9.4-0.2-12.8-3.3c-3.1-1.9-4.8-5.5-4.2-9.1c-0.1-3.2,0.8-6.4,2.6-9.1c1.2-2.2,3.3-3.7,5.8-4.2c2.4-0.8,4.1,0.9,5,4.2l1.3-3
	l-2.6-1.7c-0.8-0.9-1.7-0.9-4.1-1.7v-5l-1.7-2.6c-1.7,0.9-3.3,0.9-3.3,1.7c2.6,1.7,3.3,3.3,1.7,5.9l-4.1,5.8
	c-1.7,2.8-2.8,5.9-3.3,9.1c0.2,2.4,1,4.7,2.4,6.7l4.2,5c1.3,1.3,1.9,3.2,1.7,5c0,1.7-0.9,2.4-1.7,4.1c-1,1-2.1,1.9-3.3,2.6l-4.2,2.4
	l-2.4,2.6l-1.7,3.3h-2.6l-3.3-1.7h-4.9c-1.7,0.8-1.7,1.7-2.6,4.1c1.7,1.7,3.3,1.7,2.6,0c1.7-2.4,2.4-3.3,4.1-2.4
	c1.7,0.9,1.7,1.7,1.7,4.1c-0.2,2.6-0.7,5.1-1.7,7.6c-1.8,3.2-4.8,5.6-8.3,6.5c-3.1,1.5-6.7,1.8-10,0.9c-4.1-1.7-5.8-3.3-6.7-5.9
	c-0.5-2-0.2-4.1,0.9-5.8c1.1-1.1,2.6-2,4.1-2.4h1.7c0.9,0,0.9,0,0.9,0.8l1.7,1.7c0.8,0.9,0.8,1.7,1.7,2.6c0.9,0.9,1.7-1.7,1.7-2.6
	c0.1-0.9-0.2-1.8-0.9-2.4c-1.3-1.8-3.5-2.8-5.8-2.6c-1.7,0-1.7,0.9-2.6,1.7l-2.4,1.7h-3.3l-2.4-1.7c-1.2-1.5-3.4-1.8-5-0.8
	c-1.6,0.8-3.1,2-4.2,3.3c0.9,3.3,0.9,4.1,1.7,1.7l0.9-1.7c2.6-0.9,5.5-0.3,7.4,1.7c0.9,0.8,0.9,1.7,0.9,3.3s-0.9,1.5-1.7,3.2
	c-1.6,2.7-4.5,4.3-7.6,4.2c-4.7,0.5-9.4-1-12.8-4.2c-1.7-1.7-3.3-2.4-4.1-4.1c-1.6-2.2-2.5-4.8-2.6-7.4c0-1.7,0.9-1.7,1.7-2.6
	c0.7-0.6,1.6-0.9,2.4-0.8c1.7,0,1.7,0.8,1.7,1.7v1.7l-1.7,0.8c-0.8,1.7,0.9,1.7,2.6,1.7s0.8-0.8,1.7-1.7c0.9-0.9,0.8-1.7,0-2.4
	c-0.8-0.8-0.9-0.9-1.7-1.7c-0.8-0.8-1.7-1.7-2.6-1.7c-1.6-0.2-3.1,0.4-4.1,1.7l-1.7,2.4l-3.3-5c-1-1.7-2.1-3.4-3.3-5
	c-1.1-1.2-2.5-2-4.1-2.4l-4.2-4.1c-0.8-2.2-0.8-4.5,0-6.7c0-0.9,1.7-1.7,1.7-1.7l1.7-1.7c1.4-2.3,2.2-4.9,2.6-7.6
	c0.4-3.8-0.5-7.6-2.6-10.8l-2.4-3.3c-1.7-1.7-1.7-2.4-1.7-3.3c0-0.9,0-4.1,1.7-4.1h1.8c0.8,0,0.8-0.9,0.8-1.7
	c-0.1-0.5-0.4-0.9-0.8-1.2c-0.9-0.1-1.8,0.2-2.4,0.8l-1.7,1.7l-1.7,2.6v2.4c0,1.7,0,1.7-0.9,1.7h-1.5l-1.7,0.9
	c-0.9,0.8-1.7,0.8-1.7,1.7h-1.7c-0.9,1.7,0,1.7,0,2.4c0,0.8,0.8,0.9,1.7,0.9h1.7v-2.2c0-0.9,0-1.7,0.8-1.7c0.4-0.5,1-0.8,1.7-0.9
	c1.5,0.1,3,0.6,4.1,1.7c1.2,1.2,2.1,2.6,2.6,4.2c1.5,2.5,2,5.4,1.7,8.2c0,3.3-1.5,6.4-4.2,8.3c-2.6,2.1-5.8,3.3-9.1,3.3
	c-3.5,0-6.9-0.8-10-2.4c-3.5-2.1-6.2-5.4-7.4-9.2c-1.1-2.1-1.7-4.4-1.7-6.7v-5.8c0.3-4.5,1.7-8.9,4.1-12.8c2.8-3.6,6.2-6.7,10-9.1
	c5-4.1,8.3-7.4,10-8.3c2.7-2.8,4.7-6.3,5.8-10c0.8-4.2,0.8-8.6,0-12.8c-0.6-3.9-2-7.6-4.1-10.9c-2-2.9-4.6-5.4-7.4-7.4l-4.2-2.4
	h-0.8l-1.5-2.2c-0.5-0.4-0.7-1-0.8-1.7l0.8-1.7c0.5-0.4,0.8-1,0.9-1.7c0.1-1.2-0.2-2.4-0.9-3.3l-0.8-3.3c-0.6-1.6,0.2-3.4,1.8-4
	c0.2-0.1,0.4-0.1,0.6-0.2c2.6-1.7,4.2-0.9,5.9,1.7s1.7,1.7,1.7,3.3c0,1.7,0,1.7-0.9,1.7l-3.3,0.8c-0.8,0.9-0.8,0.9,0,1.7
	c0.8,0.8,0.9,0.9,1.7,0.9c0.8,0,2.6,0,3.3-0.9c0.5-0.4,0.8-1,0.9-1.7l1.5-1.7h1.7c0.9,0,1.7,0,1.7-0.8c0-0.8,1.7-1.7,1.7-2.6
	c-0.1-0.9-0.8-1.6-1.7-1.7l1.7,0.9c0,0.4-0.3,0.8-0.8,0.8l0,0h-2.6l-1.7-1.7l-1.5-1.7c-1.7-0.8-2.6-1.7-4.2-1.7s-3.3,0-4.1,1.7
	c-0.8,1.7-1.7,1.7-1.7,2.6s-1.7,1.7-1.7,1.7c-1.2-0.9-2.7-1.5-4.2-1.7c-1.7-1.7-1.7-1.7-0.8-1.7l5.8-3.3c2.8-1.5,5.4-3.5,7.6-5.8
	c2.4-2.4,4.6-4.9,6.5-7.6l6.7-8.3c3.7-4.9,8-9.2,12.8-12.8c4.6-3.6,10-5.9,15.8-6.7h5c2.6,0,4.2,1.7,5.9,1.7
	c0.7,1.1,1.2,2.2,1.7,3.3v4c-0.4,0.5-1,0.8-1.7,0.9v-5c0-0.9,0-1.7-0.9-1.7c-0.9,0-1.7,0-1.7,0.8v5.9l-0.8,0.8h-1.7
	c-1.7,0-1.7-0.8-1.7-1.7l0.8-1.7v-1.7c-0.8-1.7-1.7-1.7-1.7-0.8c0,0.9-1.7,1.7-1.7,2.4c0,0.8,0.9,1.7,1.7,2.6s1.7,1.7,4.2,1.7
	l3.3-0.9l2.4,1.7c1.7,0.9,1.7,0.9,2.4,0.9c1.8-0.1,3.5-0.6,5-1.7l5,0.8c1-0.3,1.9-0.9,2.6-1.7c0.5-0.4,0.7-1,0.8-1.7
	c0.9,0,0.9-0.8,0-1.7c-0.1-0.9-0.8-1.6-1.7-1.7c-0.8,0-0.8,0-1.7,0.9v2.4c0,0.8,0,1.7-0.8,1.7c-0.8,0-0.9,0.8-1.7,0.8
	c-0.9,0.1-1.7-0.5-1.9-1.5c0-0.3,0-0.7,0.2-1v-6.7c0-0.8-0.9-0.8-1.7-0.8l-0.9,0.8v1.7l-0.8,0.9h-1.7c-0.9-0.1-1.6-0.8-1.7-1.7
	c0-1.7,0-4.2,1.7-5c0.8-1.1,2-1.7,3.3-1.7c2.4-1.7,5-0.9,9.1,0.8c2.1,1.1,4.4,2,6.7,2.6c4.9,1.7,9.3,4.5,12.8,8.3
	c4.7,2.2,8.7,5.7,11.6,10H201.4z M158,247.8c1.7,1.7,1.7,1.7,1.7,2.4c0.9,3.3-1.7,5.9-6.5,7.6c-1.6-2.4-3-5-4.2-7.6l4.2-5.8
	L158,247.8z"/>
<path class="st0" d="M309.6,71.6h57.8c8.6-0.2,17.2,0.3,25.7,1.4c5.4,0.9,10.6,3,15.2,6c4.6,3.1,8.3,7.2,11,12.1
	c6.3,11.1,6,24.8-1,35.6c-3.6,5.6-8.7,10.1-14.8,12.8c8,2,15.1,6.5,20.3,12.8c4.8,6.3,7.2,14,7.1,21.8c0,6.7-1.6,13.3-4.5,19.3
	c-3,6-7.4,11.1-12.8,14.9c-5.9,3.9-12.6,6.2-19.6,6.8c-4.8,0-16.6,0.9-35.2,1h-49.1V71.6z M338.8,95.8v33.4h19.1
	c11.4,0,18.5,0,21.2,0c4.4-0.3,8.6-2.1,11.8-5.1c3-3,4.6-7.1,4.4-11.3c0.2-4-1.2-7.9-3.7-10.9c-2.9-3-6.9-4.8-11-5
	c-2.8,0-11.2,0-24.9,0L338.8,95.8z M338.8,153.3v38.5h27.1c6.7,0.2,13.4-0.1,20-0.9c4.1-0.7,7.8-2.7,10.5-5.8
	c3-3.6,4.5-8.2,4.1-12.8c0.1-3.9-1-7.8-3.1-11c-2.3-3.1-5.5-5.4-9.1-6.5c-8.4-1.8-17.1-2.5-25.7-2.1L338.8,153.3z"/>
<path class="st0" d="M475.9,143.5l-25.7-4.6c2-9,7.2-17,14.6-22.5c9.3-5.5,20-8,30.8-7.3c9.4-0.5,18.8,1,27.6,4.4
	c5.4,2.3,9.8,6.2,12.8,11.2c3.1,7.9,4.4,16.4,3.7,24.9v32.4c-0.2,6.8,0.2,13.6,1.3,20.3c1.1,4.9,2.8,9.6,5,14.1h-27.2
	c-0.8-1.9-1.7-4.6-2.7-8.2c-0.3-1.1-0.6-2.2-1-3.2c-4.4,4.3-9.5,7.8-15.2,10.3c-5.5,2.3-11.4,3.5-17.3,3.5
	c-9.4,0.6-18.6-2.6-25.7-8.7c-6.2-5.9-9.6-14.2-9.1-22.7c-0.1-5.6,1.4-11,4.2-15.8c2.8-4.7,7-8.4,11.9-10.7c7-3.1,14.4-5.3,22-6.5
	c9.2-1.4,18.2-3.7,27-6.8v-2.7c0.5-4.2-1-8.4-4-11.4c-4.4-2.8-9.7-4-14.9-3.5c-4-0.2-8,0.8-11.4,3
	C479.4,135.5,477,139.3,475.9,143.5z M513,166c-3.5,1.2-9.1,2.6-16.8,4.2c-5.3,0.8-10.4,2.5-15.2,4.9c-3.4,2.1-5.4,5.8-5.4,9.8
	c-0.1,3.8,1.5,7.5,4.4,10c2.9,2.9,6.9,4.4,11,4.2c5.2-0.1,10.1-1.8,14.3-4.9c3.2-2.3,5.5-5.5,6.7-9.2c0.8-4.2,1.2-8.5,1-12.8V166z"
	/>
<path class="st0" d="M662.9,216.3h-27.7v-53.6c0.4-7.4-0.2-14.7-1.7-22c-1.1-3.1-3.1-5.8-5.8-7.7c-2.9-1.9-6.2-2.9-9.6-2.8
	c-4.6,0-9.1,1.4-12.8,4c-3.7,2.5-6.5,6.2-7.8,10.5c-1.8,7.9-2.5,16-2.1,24v47.5h-27.9V111.6h25.7V127c7.9-11.3,20.8-18,34.5-17.9
	c5.8,0,11.5,1.1,16.8,3.3c4.5,1.8,8.4,4.7,11.4,8.5c2.6,3.4,4.5,7.4,5.5,11.6c1.1,6.2,1.5,12.5,1.4,18.7V216.3z"/>
<path class="st0" d="M782.5,142.5l-27.4,4.9c-0.4-4.9-2.7-9.5-6.3-12.8c-3.6-2.9-8.2-4.4-12.8-4.1c-6.3-0.2-12.4,2.4-16.6,7.2
	c-4.7,7-6.8,15.5-5.9,23.9c-0.9,9.2,1.3,18.5,6.3,26.3c4.1,5.1,10.3,8,16.8,7.7c4.7,0.2,9.3-1.4,12.8-4.5c4-4.2,6.5-9.6,7.2-15.4
	l27.2,4.6c-2,11-7.8,21.1-16.3,28.4c-9.4,6.7-20.7,10-32.2,9.5c-13.8,0.7-27.2-4.6-36.7-14.5c-9.6-11.1-14.5-25.5-13.6-40.2
	c-0.9-14.7,4-29.2,13.7-40.3c9.7-9.9,23.2-15.2,37-14.5c10.8-0.5,21.5,2.3,30.6,8.2C774.4,123.3,780.1,132.4,782.5,142.5z"/>
<path class="st0" d="M797.1,162.4c0-9.3,2.4-18.4,6.8-26.6c4.3-8.4,11-15.3,19.3-19.8c8.6-4.6,18.2-6.9,27.9-6.8
	c14.4-0.4,28.4,5.2,38.5,15.5c10.1,10.3,15.5,24.2,15.2,38.5c0.5,14.7-5.1,28.9-15.4,39.4c-10.1,10.4-24,16.1-38.5,15.7
	c-9.5,0-19-2.2-27.5-6.5c-8.5-4-15.5-10.7-19.9-19C798.8,183.4,796.6,172.9,797.1,162.4z M825.5,164c-0.6,8.6,2.1,17.1,7.4,23.9
	c9,10.1,24.4,11,34.4,2c0.7-0.6,1.4-1.3,2-2c5.3-6.9,7.9-15.5,7.3-24.1c0.6-8.5-1.9-16.9-7.1-23.6c-8.7-10.1-24-11.2-34.1-2.4
	c-0.9,0.7-1.7,1.6-2.4,2.4C827.7,146.8,824.9,155.3,825.5,164z"/>
<path class="st0" d="M975.9,169.2l28.4-2.7c1,7.9,4.7,15.2,10.5,20.7c5.9,4.8,13.4,7.2,21.1,6.8c7.6,0.5,15.1-1.6,21.3-6
	c4.4-3.3,7.1-8.5,7.2-14c0.1-3.2-1-6.3-3.1-8.7c-2.9-3-6.5-5.1-10.5-6.2c-3.3-1.3-11.2-3.3-23.4-6.4c-11.9-2.2-23.2-7-32.9-14.3
	c-8.4-7.3-13.1-18-12.8-29.2c0-7.4,2.2-14.6,6.3-20.7c4.3-6.6,10.6-11.7,18-14.6c9.1-3.6,18.8-5.3,28.5-5c14.6-1.1,29.2,3.2,41,11.9
	c9.2,8,14.5,19.6,14.5,31.8l-29.3,1.3c-0.5-6.2-3.4-11.9-8-16.1c-5.5-3.6-12-5.3-18.5-4.9c-7.1-0.4-14.1,1.5-20,5.3
	c-3,2-4.7,5.4-4.6,9c0,3.4,1.6,6.6,4.4,8.7c8.3,4.9,17.4,8.2,26.8,9.8c10.9,2.2,21.5,5.7,31.6,10.4c6.5,3.5,11.9,8.6,15.7,14.9
	c4.1,7,6.1,15,5.8,23.1c0,8.3-2.4,16.3-6.9,23.2c-4.7,7.3-11.5,12.9-19.5,16.2c-10,3.8-20.7,5.6-31.5,5.3
	c-15.1,1-30.1-3.6-42.1-12.8C983.3,196.5,976.9,183.3,975.9,169.2z"/>
<path class="st0" d="M1138.6,143.5l-25.7-4.6c2-9,7.2-17,14.6-22.5c9.3-5.5,20-8,30.8-7.3c9.4-0.5,18.8,1,27.6,4.4
	c5.3,2.3,9.8,6.2,12.8,11.2c3,7.9,4.2,16.4,3.6,24.9v32.4c-0.2,6.8,0.2,13.6,1.3,20.3c1.1,4.9,2.8,9.6,5,14.1h-27.4
	c-0.8-1.9-1.7-4.6-2.7-8.2c-0.3-1.1-0.6-2.2-1-3.2c-4.4,4.3-9.5,7.8-15.2,10.3c-5.5,2.3-11.4,3.5-17.3,3.5
	c-9.4,0.6-18.6-2.6-25.7-8.7c-6.2-5.7-9.6-13.8-9.4-22.2c-0.1-5.6,1.4-11,4.2-15.8c2.9-4.6,7.2-8.3,12.2-10.4c7-3.1,14.4-5.3,22-6.5
	c9.2-1.4,18.2-3.7,27-6.8v-2.7c0.4-4.2-1-8.4-3.9-11.4c-4.5-2.8-9.8-4-15-3.5c-4-0.2-8,0.8-11.4,3
	C1142,136.1,1139.7,139.6,1138.6,143.5z M1175.7,166c-3.5,1.2-9.1,2.6-16.8,4.2c-5.3,0.8-10.4,2.5-15.2,4.9
	c-3.4,2.1-5.4,5.8-5.4,9.8c-0.1,3.8,1.5,7.5,4.4,10c2.9,2.9,6.9,4.4,11,4.2c5.2-0.1,10.1-1.8,14.3-4.9c3.2-2.3,5.5-5.5,6.7-9.2
	c0.8-4.2,1.2-8.5,1-12.8V166z"/>
<path class="st0" d="M1218.2,111.6h15.4v-8c-0.3-6.7,0.6-13.3,2.7-19.6c2.2-4.6,5.8-8.4,10.4-10.7c5.9-2.9,12.5-4.3,19.1-4.1
	c7.8,0,15.6,1.2,23.1,3.6l-3.7,19.3c-4.2-1-8.5-1.5-12.8-1.5c-3.1-0.3-6.3,0.7-8.6,2.8c-2.2,3.2-3.1,7-2.7,10.8v7.4h20.8v21.7h-20.8
	v83.1h-27.6v-83.1h-15.4L1218.2,111.6z"/>
<path class="st0" d="M1324.1,216.3h-27.7V111.6h25.7v14.9c3-5.4,7-10.2,11.8-14c3.6-2.2,7.8-3.4,12.1-3.3c6.4,0.1,12.7,1.9,18.2,5.3
	l-8.6,24.1c-3.8-2.6-8.2-4.2-12.8-4.5c-3.5-0.1-7,1-9.8,3.2c-3.3,3.1-5.5,7.1-6.4,11.6c-2,11.6-2.8,23.4-2.3,35.2L1324.1,216.3z"/>
<path class="st0" d="M1396.9,143.5l-25.7-4.6c2-9,7.2-17,14.6-22.5c9.3-5.5,20-8,30.8-7.3c9.4-0.5,18.8,1,27.6,4.4
	c5.4,2.3,9.8,6.2,12.8,11.2c3.1,7.9,4.3,16.4,3.7,24.9v32.4c-0.2,6.8,0.2,13.6,1.3,20.3c1.1,4.9,2.8,9.6,5,14.1h-27.4
	c-0.6-1.9-1.5-4.6-2.6-8.2l-1-3.2c-4.4,4.3-9.5,7.8-15.2,10.3c-5.5,2.3-11.4,3.5-17.3,3.5c-9.4,0.5-18.6-2.6-25.7-8.7
	c-6.1-5.7-9.5-13.8-9.2-22.2c-0.1-5.6,1.4-11,4.2-15.8c2.8-4.7,7-8.4,11.9-10.7c7-3.1,14.4-5.3,22-6.5c9.2-1.4,18.2-3.7,27-6.8v-2.7
	c0.5-4.2-1-8.4-4-11.4c-4.4-2.8-9.7-4-14.9-3.5c-4.1-0.2-8.1,0.8-11.6,3C1400.3,135.9,1398,139.5,1396.9,143.5z M1434.7,166
	c-3.6,1.2-9.1,2.6-16.8,4.2c-5.3,0.8-10.4,2.4-15.2,4.9c-3.4,2.1-5.4,5.8-5.4,9.8c-0.1,3.8,1.5,7.5,4.4,10c2.9,2.9,6.9,4.4,11,4.2
	c5.2-0.1,10.1-1.8,14.3-4.9c3.1-2.3,5.5-5.5,6.7-9.2c0.8-4.2,1.2-8.5,1-12.8L1434.7,166z"/>
</svg>
