<?xml version="1.0" encoding="utf-8"?>
<!-- Generator: Adobe Illustrator 24.0.1, SVG Export Plug-In . SVG Version: 6.00 Build 0)  -->
<svg version="1.1" id="Layer_1" xmlns="http://www.w3.org/2000/svg" xmlns:xlink="http://www.w3.org/1999/xlink" x="0px" y="0px"
	 viewBox="0 0 542.2 195.4" style="enable-background:new 0 0 542.2 195.4;" xml:space="preserve">
<style type="text/css">
	.st0{fill:#1D1D1B;}
</style>
<path class="st0" d="M408.7,35.2l39.9-7.2v153.2h-39.9V35.2z M466.8,35.2v145.9h39.9V28.2L466.8,35.2z M352,181.1h39.9v-112H352
	V181.1z M88.4,85c-5.1,0-16.7-1-16.7-11.6c0-12.7,16.9-12.7,23-12.7c12.1,0.5,24.1,2.6,35.7,6.3l10.5,4.1l0,0V36.5h-0.6
	c-16.7-5.9-34.4-8.7-52.1-8.2c-44.8,0-60.9,26.2-60.9,48.5c0,12.9,5.5,43.3,57.1,46.9c4.5,0,15.9,0.8,15.9,11.8
	c0,9.3-9.3,14.2-25.4,14.2c-15.3-0.1-30.4-3.1-44.5-8.7v35.7c17.4,4.3,35.3,6.4,53.3,6.1c43.9,0,63.5-24.7,63.5-49.4
	C147.3,105.7,125.3,87.5,88.4,85z M329.6,67.5c-37.1,1.3-55.7,17.7-55.7,50.5v63.2h40.2v-51.3c0-19.7,2.5-27.8,26-28.9V68.1
	c-3.6-0.6-7.2-0.8-10.8-0.6H329.6z M221.5,69.1c-5.4,14.1-13.1,27.3-22.8,38.9V28.2l-41.3,8.3v144.6h41.2v-44.8
	c8.1,14,14.1,29.1,17.7,44.8h49.3c-6.8-20.1-15.6-39.4-26.3-57.7c12.7-16.3,22.5-34.6,28.9-54.3L221.5,69.1z M372.1,58.4
	c10.9,0,19.7-8.8,19.7-19.7S383,19,372.1,19c-10.9,0-19.7,8.8-19.7,19.7c0,10.7,8.7,19.5,19.4,19.7H372.1z"/>
</svg>
