<?xml version="1.0" encoding="utf-8"?>
<!-- Generator: Adobe Illustrator 24.0.1, SVG Export Plug-In . SVG Version: 6.00 Build 0)  -->
<svg version="1.1" id="Layer_1" xmlns="http://www.w3.org/2000/svg" xmlns:xlink="http://www.w3.org/1999/xlink" x="0px" y="0px"
	 viewBox="0 0 1727.3 300" style="enable-background:new 0 0 1727.3 300;" xml:space="preserve">
<style type="text/css">
	.st0{fill:#1D1D1B;}
</style>
<path class="st0" d="M335.1,136.3V64.9h62.2c26.4,0,48.6,7,48.6,39.7c0.9,13.8-7.3,26.7-20.2,31.7l0,0c-2.6,1.1-5.3,1.9-8.1,2.4
	c24.3,3.3,31,17.9,31,38.9c0,38.9-36.4,40.6-51.1,40.6h-60.7L335.1,136.3z M282.4,72.4L260,87.4l-22.8-15.8l45.2-30.1V72.4z
	 M235.4,159.5l46,31l-111.3,74.7L60.8,190.8l130.8-89l22.2,15.8l-105.8,72.2l65.4,44.6l30.7-21l-24.3-15.9L235.4,159.5z
	 M161.3,109.3l-55.5,37.3l-46-30.9l110.9-74.8l110.2,74.6l-131.2,88.8l-22-15.2l105.9-71.6L168.1,73l-30.7,20.3l24.3,15.9
	L161.3,109.3z M82.5,219.9l23.2,15.7l-45.4,30.4v-30.4L83,219.9H82.5z M724.1,202.6c11.5,0,12.1-16,12.1-26.1h30.9
	c0,34.3-15.8,45.2-42.9,45.2c-47.7,0-46.6-28.3-46.6-66.1c0-6.8,0-13.4,0-19.4h31.6c0,5.5,0,12.1,0,19.4
	C709,194.6,711,202.6,724.1,202.6z M1191.4,194.7c6.2,0,20.4,0,20.4-21.6c0-13.6-4.7-21.9-19.7-21.9h-17.4v43.4L1191.4,194.7z
	 M1174.8,88.7v39.2h19.8c6.4,0,15.5-4.7,15.5-19.6c1-9.7-6.1-18.5-15.8-19.5c-0.4,0-0.9-0.1-1.3-0.1L1174.8,88.7z M1218.5,138.8
	c24.3,3.2,31,17.7,31,38.8c0,38.9-36.4,40.6-51.3,40.6h-60.7V64.9h61.6c26.4,0,48.6,7,48.6,39.7c0.9,13.7-7.1,26.5-19.8,31.7l0,0
	c-2.7,1.1-5.4,1.9-8.3,2.6H1218.5z M1633.4,199.6h36.4v19h-67.7V93.3h31.2v106.5V199.6z M384.3,194.6c7.7,0,25,0,25-21.6
	c0-13.6-5.8-21.9-24.3-21.9h-4.9h-7.5v43.2L384.3,194.6z M1492.9,136.3c13.2,12.9,48.6,16.2,48.6,46.6c0,32.4-20.9,35.2-41.4,35.2
	h-74.2l-8.1-27.7h-33l-7.8,27.8h-51.1l-29-68.5h8.9c6.8,0,11.4-5.3,12.9-13.2c0.2-1.7,0.2-3.5,0-5.2c1.1-9.4-5.7-17.9-15.1-19
	c-0.6-0.1-1.2-0.1-1.8-0.1H1291v106.2h-31.2v-82.1l0,0v-43h58.4c16.3-1.3,30.6,10.9,31.9,27.2c0.1,1.9,0.1,3.8-0.1,5.6
	c0,3.6-0.3,7.2-1,10.8l0,0c-1.2,11.3-10.1,20.2-21.4,21.5l21.7,48.6l21.4-70.6h26.2l-7.7,34.9h23.7l-8.4-34.9h29.4l18.5,62.8h42.2
	c6.7,0.8,12.7-3.9,13.6-10.5c0.2-1.2,0.1-2.5-0.1-3.7c0-19.2-48.6-20.2-57.6-48.6l0,0c-0.9-2.8-1.3-5.8-1.2-8.7
	c0-19.7,8.1-34.9,40.9-34.9h40v19.3h-28.4c-6.6-1-12.8,3.5-13.9,10.1c-0.2,1.1-0.2,2.2-0.1,3.3c0,4.2,1.8,8.1,4.9,10.9l0,0
	L1492.9,136.3z M839.2,136.3h31.8c0,6.3,0,12.9,0,19.4c0,33.5,0,66.1-47.7,66.1s-47.7-32.6-47.7-66.1c0-6.6,0-13.1,0-19.4l0,0
	c1.6-25.8,9-46.6,47.4-46.6c38.4,0,45.9,20.9,47.4,46.6L839.2,136.3c-1.1-19.1-4.6-27.6-15.4-27.6c-10.8,0-14.3,8.5-15.3,27.6l0,0
	c0,5.6,0,12.1,0,19.4c0,32.8,1.8,47,15.8,47s15.8-14.2,15.8-47c0-7.4,0-13.8,0-19.4L839.2,136.3z M1057.1,202.6
	c14,0,15.8-14.1,15.8-46.8c0-7.5,0-14.1,0-19.7c-1.1-18.7-4.6-27.1-15.4-27.1s-14.3,8.4-15.3,27.1c0,6.6,0,13.1,0,19.7
	c0,32.7,1.8,46.8,15.8,46.8H1057.1z M1079.1,136.2h25.4c0,6.3,0,13,0,19.7c0,33.4,0,65.8-47.7,65.8s-47.7-32.4-47.7-65.8
	c0-6.7,0-13.4,0-19.7c1.6-25.5,9.1-46.2,47.4-46.2c38.3,0,45.9,20.7,47.4,46.2H1079.1z M997.1,136.2c0.5,5.6,0.7,11.7,0.7,18.2
	c0,19.3,3.2,63.7-45.7,63.7h-46.6V92.3h47.7c31.2,0,41.3,16,43.9,44h-31.2c-1-14.2-4.6-24.3-16.6-24.3H937v87h12.1
	c14.9,0,17.9-12.1,17.9-43.5c0-6.8,0-13.4,0-19.2L997.1,136.2z M1552.8,136.2V93.3h31.2v124.9h-31.2v-81.9V136.2z M678.2,136.2
	c1.5-27.6,8.9-46.6,44.8-46.6c29.5,0,44.5,15.1,43.2,42.5h-30.9c0-17-3.6-23.4-12.1-23.4s-13,4.5-14.1,27.6H678.2z M638.6,136.2
	V93.3h26v43.6l0,0v81.9h-36.4l-33.4-81.9l-0.7-1.8v83.7h-26.6V93.3H605l17.9,43.6l0,0l15.3,37.5v-38.1L638.6,136.2z M515.1,171
	l-8.5-34.7l-4-16.5l-3.6,16.5l-7.7,34.7H515.1z M536.3,136.3L536.3,136.3l24.3,81.9h-33l-7.5-27.7h-33l-7.7,27.8h-30.9l24.3-81.9
	l13.4-43.1h37.3L536.3,136.3z M1371,136.3l13.1-43h37.4l12.8,43.6h-29.5l-3.9-16.5l-3.6,16.5L1371,136.3z M388.3,127.5
	c10.1,0.4,18.7-7.4,19.1-17.6c0-0.7,0-1.3,0-2c0-10.8-8.7-19.6-19.5-19.6c-0.5,0-0.9,0-1.4,0H373v39.2h15.4L388.3,127.5z"/>
</svg>
