<?xml version="1.0" encoding="utf-8"?>
<!-- Generator: Adobe Illustrator 24.0.1, SVG Export Plug-In . SVG Version: 6.00 Build 0)  -->
<svg version="1.1" id="Layer_1" xmlns="http://www.w3.org/2000/svg" xmlns:xlink="http://www.w3.org/1999/xlink" x="0px" y="0px"
	 viewBox="0 0 221.6 195.4" style="enable-background:new 0 0 221.6 195.4;" xml:space="preserve">
<style type="text/css">
	.st0{fill:#1D1D1B;}
</style>
<path class="st0" d="M104.5,143.5c0-5,5-7.5,15-7.5v7.2c-0.5,1.6-1.6,3-3.1,3.7c-1.5,1.4-3.6,2-5.6,1.9c-4.4,0.6-6.2-1.2-6.2-5
	V143.5z M182.6,155.9v-42.5h-13.1v25c0,1.2,0,1.9-0.6,2.5c-1.1,3.5-4.4,5.8-8.1,5.6c-5,0-7.5-3.7-7.5-10.6v-22.5h-13.4v25
	c-0.3,5.4,1.5,10.8,5,15c3,3,7,4.5,11.2,4.4c5.8,0.4,11.4-2.5,14.4-7.5l0,0v6.9l11.9-1.2L182.6,155.9z M132,155.9v-25
	c0.2-4.7-1.4-9.3-4.6-12.8c-3.9-4-9.4-6-15-5.6c-6.1-0.3-12.2,1.2-17.5,4.4l2.5,8.1c3.8-2.3,8.1-3.4,12.5-3.1c5.6,0,8.7,1.9,8.7,5.6
	v0.6c-6.9-0.6-13.9,1-20,4.4c-4.5,2.5-7.2,7.3-6.9,12.5c0,3.3,1.4,6.4,3.7,8.7c3,2.5,6.7,3.8,10.6,3.7c5,0.3,9.9-1.8,13.1-5.6h0.6
	v4.4L132,155.9z M79.6,157.2c2.3,0,4.7-0.4,6.9-1.2v-10c-0.6,0.6-1.2,0.6-2.5,0.6c-1.9,0.2-3.6-0.8-4.4-2.5
	c-0.8-1.8-1.3-3.7-1.2-5.6v-15h8.1v-10h-8.1v-14H64.9v14.4h-6.2v10h6.2v17.5c-0.4,4.5,0.9,9,3.7,12.5c3,2.5,6.7,3.8,10.6,3.7
	L79.6,157.2z M164.5,99.4l-8.1,11.2h9.4L177,99.4H164.5z M40,155.9h13.1V99.4H40V155.9z M187.9,21.7c5.5,5.2,8.7,12.4,8.7,20v114.3
	c-0.1,7.6-3.2,14.8-8.7,20c-5.2,5.4-12.5,8.4-20,8.1H54.6c-7.5,0.1-14.7-2.8-20-8.1c-5.3-5.3-8.3-12.5-8.1-20V42.3
	c-0.1-7.5,2.8-14.7,8.1-20c5.4-5.2,12.5-8.1,20-8.1h113.6c7.4-0.5,14.7,2.2,20,7.5H187.9z"/>
</svg>
