<?xml version="1.0" encoding="utf-8"?>
<!-- Generator: Adobe Illustrator 24.0.1, SVG Export Plug-In . SVG Version: 6.00 Build 0)  -->
<svg version="1.1" id="Layer_1" xmlns="http://www.w3.org/2000/svg" xmlns:xlink="http://www.w3.org/1999/xlink" x="0px" y="0px"
	 viewBox="0 0 542.2 195.4" style="enable-background:new 0 0 542.2 195.4;" xml:space="preserve">
<style type="text/css">
	.st0{fill:#1D1D1B;}
</style>
<path class="st0" d="M220.9,178c-1.7,0-3.1-1.4-3.1-3.1l0,0v-101c0.2-20.1,16.6-36.3,36.8-36.3h29.8c20,0.2,36.1,16.4,36.3,36.3
	v21.8c0,20.3-16.5,36.7-36.8,36.7h-41.8c-1.7,0.3-3.3-0.9-3.6-2.6c-0.3-1.7,0.9-3.3,2.6-3.6c0.3,0,0.6,0,1,0h42.1
	c16.9,0,30.5-13.7,30.5-30.5V73.9c0-16.8-13.6-30.4-30.4-30.5h-29.8c-16.8,0-30.5,13.7-30.5,30.5v100.9
	C224,176.6,222.6,178,220.9,178L220.9,178z M352.9,132.6c-1.7,0-3.1-1.4-3.1-3.1c0,0,0,0,0-0.1V54.1c0-5.9-4.8-10.7-10.7-10.7
	c0,0,0,0-0.1,0h-12.9c-1.7,0.3-3.3-0.9-3.6-2.6c-0.3-1.7,0.9-3.3,2.6-3.6c0.3,0,0.6,0,1,0h12.9c9.3,0.1,16.7,7.6,16.7,16.9v75.4
	C355.8,131.2,354.5,132.5,352.9,132.6z"/>
<path class="st0" d="M350.1,28.6l-5.9-5.9c-1.4-1.4-1.4-3.8,0-5.2l5.9-5.9c1.4-1.5,3.8-1.7,5.3-0.3c0.1,0.1,0.2,0.2,0.3,0.3l5.8,5.9
	c1.4,1.4,1.4,3.8,0,5.2l-5.8,5.9c-1.5,1.5-3.8,1.5-5.3,0L350.1,28.6z"/>
<path class="st0" d="M390.5,132h-12.9c-1.7,0-3.1-1.4-3.1-3.1l0,0c0-1.7,1.4-3.1,3.1-3.1l0,0h12.8c5.8,0,11.3-2.3,15.4-6.4
	l29.9-29.9c5.1-5.1,13.4-5.1,18.5,0l29.9,29.9c4.1,4.1,9.6,6.4,15.3,6.4h10.5c1.7,0.3,2.9,1.9,2.6,3.6c-0.2,1.3-1.3,2.4-2.6,2.6
	h-10.5c-7.4,0-14.5-2.9-19.8-8.2l-29.4-29.9c-2.8-2.5-6.9-2.5-9.7,0l-30,30C405.3,129.1,398.1,132.1,390.5,132z M445.1,83.5
	c-3.5,0-6.8-1.3-9.2-3.8l-29.9-30c-4.1-4.1-9.6-6.4-15.4-6.4h-12.9c-1.7,0.3-3.3-0.9-3.6-2.6c-0.3-1.7,0.9-3.3,2.6-3.6
	c0.3,0,0.6,0,1,0h12.8c7.4,0,14.6,2.9,19.8,8.2l30,29.9c2.6,2.7,6.9,2.7,9.6,0.1c0,0,0.1-0.1,0.1-0.1l29.9-29.9
	c5.2-5.3,12.3-8.2,19.8-8.2h10.5c1.7,0,3.1,1.4,3.1,3.1c0,1.7-1.4,3.1-3.1,3.1h-10.5c-5.7,0-11.3,2.3-15.3,6.3l-29.9,29.9
	C451.8,82.1,448.5,83.5,445.1,83.5z"/>
<path class="st0" d="M144.4,148c-6.4,0-12.6-2.6-17-7.3l-24.6-24.3c-1.8-1.7-4.7-1.7-6.5,0l-24.6,24.7c-4.5,4.6-10.6,7.2-17.1,7.3
	h-4.9l31.2,31.1c9.7,9.7,25.5,9.7,35.3,0l31.3-31.3L144.4,148z"/>
<path class="st0" d="M54.6,61c6.4,0.1,12.6,2.7,17.1,7.3L96.3,93c1.8,1.8,4.7,1.8,6.5,0l24.6-24.6c4.5-4.6,10.6-7.2,17-7.3h3
	l-31.5-31.3c-9.8-9.7-25.5-9.7-35.3,0L49.5,61L54.6,61z"/>
<path class="st0" d="M173.3,86.9L154.4,68c-0.5,0.1-0.9,0.1-1.4,0h-8.6c-4.5,0-8.8,1.8-11.9,4.9l-24.6,24.9
	c-2.2,2.2-5.2,3.5-8.4,3.5c-3.1,0-6.2-1.3-8.4-3.5L66.5,73.2c-3.2-3.2-7.4-5-11.9-4.9H44c-0.4,0.1-0.9,0.1-1.3,0l-18.9,19
	c-9.7,9.7-9.7,25.5,0,35.3l18.9,19c0.4-0.1,0.9-0.1,1.3,0h10.5c4.5,0,8.8-1.8,11.9-4.9l24.7-24.7c4.7-4.5,12-4.5,16.7,0l24.6,24.6
	c3.2,3.1,7.5,4.9,11.9,4.9h8.6c0.5-0.1,0.9-0.1,1.4,0l18.9-18.9c9.7-9.8,9.7-25.5,0-35.3V86.9z"/>
</svg>
