<?xml version="1.0" encoding="utf-8"?>
<!-- Generator: Adobe Illustrator 24.0.1, SVG Export Plug-In . SVG Version: 6.00 Build 0)  -->
<svg version="1.1" id="Layer_1" xmlns="http://www.w3.org/2000/svg" xmlns:xlink="http://www.w3.org/1999/xlink" x="0px" y="0px"
	 viewBox="0 0 911.7 195.4" style="enable-background:new 0 0 911.7 195.4;" xml:space="preserve">
<style type="text/css">
	.st0{fill:#1D1D1B;}
</style>
<path class="st0" d="M300.4,35.1c0.9,1,2,1.9,3.2,2.7c16.1,4.2,31.3,10.6,32.6,29.4c2.2,17.6-6.3,34.8-21.6,43.7
	c-2.1,1.5-4.1,3.1-6,5c5.1,15.1,10.1,30.3,16,47.3h-36.3c-5.4-14.2-11.4-28.9-17.4-43.6h-6.9c-3.6,14.2-7.3,28-11.9,43.6h-34.5
	c6.9-37.6,13.8-73.9,19.8-110.2c3.6-15.6,18.1-11.9,26.6-18.1L300.4,35.1z M267.8,92c13.8,1.4,24.8,2.4,29.8-9.6
	c1.4-3.2,0-11-1-11.4c-8.5-2.2-17-4-25.7-5.3C269.6,76.4,268.7,83.7,267.8,92z"/>
<path class="st0" d="M501.3,35.1c5.4,2.1,10.4,5.2,14.7,9.1c7.7,6.5,13.6,14.8,17,24.3c3.7,25-1.1,50.6-13.8,72.5
	c-10.2,18.1-28.9,24.3-47.8,25.7c-17.8,0.2-35.6-0.8-53.2-3.2c6.9-39.5,13.8-75.7,19.8-112c2.7-16,18.1-10.5,26.2-16.5
	C476.5,35.1,489,35.1,501.3,35.1z M471.5,68.1c-4.1,23.4-7.8,45.3-11.4,67.9c24.3,0,28-2.3,32.6-21.1c2.3-8.5,3.7-17.3,4.2-26.1
	C498.6,69.5,495.8,67.2,471.5,68.1z"/>
<path class="st0" d="M752.3,35.1c34.9,19.2,39.1,28.5,31.7,70.2c-6.9,39-22.5,55.9-55.6,61c-33.1,5.1-56.9-14.2-54.4-47.7
	c1.4-12.5,3.7-25,6.9-37.2c6.4-27.2,27.2-39,52.8-46.3L752.3,35.1z M709.6,121.4c2.7,3.7,6.4,12.4,11.9,14.7
	c10.2,3.7,17.5-3.6,20.2-12.9c3.2-11.4,5.1-22.9,7.3-34.8c1.4-8.3,1.4-17.4-9.1-20.2c-12-3.2-18.9,4.2-22,14.2
	S713.3,104.9,709.6,121.4z"/>
<path class="st0" d="M889,53c-3.6,9.9-13.9,15.8-24.3,13.8c-10.9-0.7-21.8-0.2-32.6,1.4c0,1.8-1.4,3.7-1.8,5.5
	c8.3,5.5,16,11.9,24.3,16.5c14.9,6.4,23.7,22,21.6,38.1c-2.4,18.9-13.8,28.5-30.7,34.9c-20.3,7.1-42.6,6.5-62.5-1.9
	c1-8.3,1.9-16.5,2.8-23.8c18.1-5.4,36.3,7.8,53.7-9.1c-7.8-6-13.8-11.9-21.1-16.5c-15.1-9.1-26.1-20.7-24.8-39
	c1.4-18.3,13.3-28.9,31.2-33.5c1.8-0.5,3.2-2.7,5.1-4.1H889V53z"/>
<path class="st0" d="M419,35.1c4.1,1.8,8.3,3.6,13.7,6.4c-1.4,7.3-3.2,15.1-4.5,21.5c-15.1,12-44.1-11.4-50.5,23.9h45.9
	c-1.8,10.5-3.2,18.1-5.1,27.2H375c-2.4,6.9-4.2,12.4-6.9,21.1c16,0.9,29.8,1.4,46.3,1.8c-1.8,9.1-3.2,17.5-5.5,29.4
	c-17.3,0.3-34.7-0.6-51.9-2.7c-20.1-4.2-25.7-14.7-22.5-34.5c2.4-14.7,5.5-28.9,7.3-43.5c2.8-23.5,12.4-41.8,36.3-51L419,35.1z"/>
<path class="st0" d="M213.7,35.1c5.4,2.3,10.5,4.5,18.1,7.8c-1.8,7.8-3.2,15.1-5.5,24.3H210c-22.9-0.5-28,3.7-32.6,24.8
	c-0.5,2.4-0.5,4.6-0.9,6.4c-7.3,35.8-6,37.6,31.2,38.1c1.4,0.2,2.8,0.7,4.1,1.4c1.5,22.9-0.9,26.2-22,28.9
	c-34.4,4.2-56.9-16-53.7-49.1c0.9-11.1,4.2-21.6,6-32.6c5.1-27.2,24.3-40.8,48.7-50H213.7z"/>
<path class="st0" d="M683,65c-11,0.9-19.2,1.8-29.8,2.7c-5.9,30.7-11.9,62.4-18.1,95h-34.6c5.5-31.7,10.6-62.5,15.6-94.6
	c-9.6-1.4-18.1-2.7-28.8-4.1c2.3-9.1,4.1-16.6,6.3-24.4h92.3C684.4,48,683.9,55.3,683,65z"/>
<path class="st0" d="M564.1,163.2h-36.3c7.3-41.3,14.7-81.6,22-122.5h35.3C578.4,81.5,571.6,120.9,564.1,163.2z"/>
<path class="st0" d="M71.9,43.4c1.4,8.3,3.6,16,4.6,24.3c0,8.2,1,16.4,3.2,24.3c4.6-12.3,9.6-24.3,13.3-36.7
	c1.1-10.7,10.7-18.5,21.4-17.4c1,0.1,2,0.3,2.9,0.5c8.5,0.5,17.1,0.5,25.7,0c1.9,3.3,3.7,4.6,3.3,5.5
	c-12.4,34.5-23.8,69.7-38.5,103.3c-9.1,21.5-49.6,27.2-68.4,11.9c-4.7-3.3-7.7-8.5-8.3-14.2c-1-33.5-0.5-67.5-0.5-103.2
	c12.9-2.8,27.2-7.8,42.3,2.3H36c0,34.5,0,65.2,0.5,96.4c0.7,6.5,4,12.4,9.1,16.5c16.1,11,50.1,2.3,57.4-15.1
	c13.4-30.7,24.8-62.5,37.7-95.6h-37.2c-10.1,28-19.9,55.8-32.1,88.6C71.9,100.2,71.9,71.9,71.9,43.4z"/>
</svg>
