<?xml version="1.0" encoding="utf-8"?>
<!-- Generator: Adobe Illustrator 24.0.1, SVG Export Plug-In . SVG Version: 6.00 Build 0)  -->
<svg version="1.1" id="Layer_1" xmlns="http://www.w3.org/2000/svg" xmlns:xlink="http://www.w3.org/1999/xlink" x="0px" y="0px"
	 viewBox="0 0 908.8 300" style="enable-background:new 0 0 908.8 300;" xml:space="preserve">
<style type="text/css">
	.st0{fill:#1D1D1B;}
</style>
<path id="path50" class="st0" d="M254.9,90.7l-101-59.1c-2.9-0.2-5.8,0.1-8.6,1.1l-101,59.7c-2.5,1.2-4.2,3.7-4.3,6.4
	c-0.4,2.9,1.5,5.7,4.3,6.4l101,58c1.1,1.1,2.1,1.1,4.3,1.1c1.5,0,3-0.3,4.3-1.1l101-58c2.4-1.4,3.9-3.8,4.3-6.4
	c-0.8-2.8-2.3-5.4-4.3-7.5 M149.7,147.6l-86-49.4l86-48.9l86,49.4L149.7,147.6z"/>
<path id="path52" class="st0" d="M250.6,126.1c-4-0.1-7.4,3.1-7.5,7.1c0,0.1,0,0.3,0,0.4v77.4l-93.5,53.7l-93.5-53.7v-77.4
	c0.1-4-3.1-7.4-7.1-7.5c-0.1,0-0.3,0-0.4,0c-4.4-0.2-8.2,3.1-8.6,7.5v81.7c-0.4,2.9,1.5,5.7,4.3,6.4l101,58c1.1,1.1,2.1,1.1,4.3,1.1
	c1.5,0.2,3-0.2,4.3-1.1L256,220.7c2.4-1.4,3.9-3.8,4.3-6.4v-80.6C258.8,129.5,255.1,126.6,250.6,126.1"/>
<path id="path54" class="st0" d="M304.4,127.2c-0.1-4.7,3.7-8.5,8.4-8.6c0.1,0,0.1,0,0.2,0h23.6c4.7-0.1,8.5,3.7,8.6,8.4
	c0,0.1,0,0.1,0,0.2v67.7c0.1,4.7-3.7,8.5-8.4,8.6c-0.1,0-0.1,0-0.2,0H313c-4.7,0.1-8.5-3.7-8.6-8.4c0-0.1,0-0.1,0-0.2V127.2z
	 M336.6,101.4H313c-14.2,0.2-25.6,11.6-25.8,25.8v67.7c0.2,14.2,11.6,25.6,25.8,25.8h23.6c14.2-0.2,25.6-11.6,25.8-25.8v-67.7
	c0.2-14.1-11.1-25.6-25.2-25.8C337.1,101.4,336.9,101.4,336.6,101.4"/>
<path id="path56" class="st0" d="M569.9,156.8h-29c-4.7-0.1-8.5,3.7-8.6,8.4c0,0.1,0,0.1,0,0.2c0.3,4.6,4,8.3,8.6,8.6h20.4v22.6
	c0.1,4.7-3.7,8.5-8.4,8.6c-0.1,0-0.1,0-0.2,0h-23.6c-4.7,0.1-8.5-3.7-8.6-8.4c0-0.1,0-0.1,0-0.2v-68.8c-0.1-4.7,3.7-8.5,8.4-8.6
	c0.1,0,0.1,0,0.2,0h23.6c4.7-0.1,8.5,3.7,8.6,8.4c0,0.1,0,0.1,0,0.2c0,4.7,3.9,8.6,8.6,8.6c4.7,0,8.6-3.8,8.6-8.6
	c-0.2-14.2-11.6-25.6-25.8-25.8h-23.6c-14.2,0.2-25.6,11.6-25.8,25.8v67.7c0.2,14.2,11.6,25.6,25.8,25.8h23.6
	c14.2-0.2,25.6-11.6,25.8-25.8v-31.2c-0.2-2.3-1-4.5-2.1-6.4C574.3,157,572.1,156.6,569.9,156.8"/>
<path id="path58" class="st0" d="M478.5,101.4c-4.7-0.1-8.5,3.7-8.6,8.4c0,0.1,0,0.1,0,0.2v103.2c0,4.7,3.9,8.6,8.6,8.6
	c4.7,0,8.6-3.8,8.6-8.6V110C486.8,105.4,483.2,101.7,478.5,101.4"/>
<path id="path60" class="st0" d="M602.2,101.4c-4.7-0.1-8.5,3.7-8.6,8.4c0,0.1,0,0.1,0,0.2v103.2c0,4.7,3.9,8.6,8.6,8.6
	c4.7,0,8.6-3.8,8.6-8.6V110C611.8,105.7,607.5,101.4,602.2,101.4"/>
<path id="path62" class="st0" d="M693.5,101.4c-4.7-0.1-8.5,3.7-8.6,8.4c0,0.1,0,0.1,0,0.2v74.2L643,105.7c-1.5-2.8-4.4-4.5-7.5-4.3
	c-4.4-0.4-8.2,2.9-8.6,7.3c0,0.4,0,0.9,0,1.3v103.2c0,4.7,3.9,8.6,8.6,8.6c4.7,0,8.6-3.8,8.6-8.6v-70.9l41.9,75.2
	c1.9,3.4,5.9,5.2,9.7,4.3c4-0.8,6.8-4.5,6.4-8.6V110C703.2,105.7,698.9,101.4,693.5,101.4"/>
<path id="path64" class="st0" d="M863.4,204.6h-36.4V110c0-4.7-3.9-8.6-8.6-8.6c-4.7,0-8.6,3.8-8.6,8.6v103.2
	c-0.1,4.7,3.7,8.5,8.4,8.6c0.1,0,0.1,0,0.2,0h45.1c4.7,0.1,8.5-3.7,8.6-8.4c0-0.1,0-0.1,0-0.2c0.4-4.4-2.9-8.2-7.3-8.6
	c-0.4,0-0.9,0-1.3,0"/>
<path id="path66" class="st0" d="M436.6,144.4c0,4.3-3.2,11.8-8.6,11.8h-32.2v-29c-0.1-4.7,3.7-8.5,8.4-8.6c0.1,0,0.1,0,0.2,0H428
	c4.7-0.1,8.5,3.7,8.6,8.4c0,0.1,0,0.1,0,0.2V144.4z M428,101.4h-23.6c-14.2,0.2-25.6,11.6-25.8,25.8v84.9c-0.1,4.7,3.7,8.5,8.4,8.6
	c0.1,0,0.1,0,0.2,0c4.6-0.3,8.3-4,8.6-8.6v-38.7H414l23.6,44.1c2,4.4,7.1,6.3,11.5,4.4c4.4-2,6.3-7.1,4.4-11.5
	c-0.2-0.5-0.5-1-0.8-1.5l-19.3-36.5c12.3-4.3,20.5-16,20.4-29v-16.1C453.6,113,442.2,101.6,428,101.4"/>
<path id="path68" class="st0" d="M776.3,156.8h-39.8v-29c-0.1-4.7,3.7-8.5,8.4-8.6c0.1,0,0.1,0,0.2,0h23.6c4.7-0.1,8.5,3.7,8.6,8.4
	c0,0.1,0,0.1,0,0.2v29H776.3z M767.7,102h-23.6c-14.2,0.2-25.6,11.6-25.8,25.8v84.9c-0.1,4.7,3.7,8.5,8.4,8.6c0.1,0,0.1,0,0.2,0
	c4.6-0.3,8.3-4,8.6-8.6v-39.8h39.8v38.7c0,4.7,3.9,8.6,8.6,8.6c4.7,0,8.6-3.8,8.6-8.6V131c2.2-13.7-7.1-26.5-20.8-28.7
	C770.4,102.1,769,102,767.7,102"/>
<path id="path70" class="st0" d="M395.8,81.5c0,2.4,1.9,4.3,4.3,4.3c2.4,0,4.3-1.9,4.3-4.3V63.3c0.7-7-4.4-13.2-11.3-13.9
	c-0.5-0.1-1-0.1-1.6-0.1h-10.7c-7.1,0.1-12.8,5.8-12.9,12.9v19.3c0.9,2.3,3,3.9,5.4,4.3c2.3-0.2,4.1-2,4.3-4.3V62.2
	c0.2-2.3,2-4.1,4.3-4.3h10.7c2.3,0.2,4.1,2,4.3,4.3v19.3H395.8z"/>
<path id="path72" class="st0" d="M357.1,70.8c2.1,0,1.1-2.1,1.1-4.3s1.1-4.3-2.1-4.3h-15c-8.6,0-14,5.4-12.9,12.9V74
	c0.1,7.1,5.8,12.8,12.9,12.9h7.5c1.7-1.4,2.8-3.3,3.2-5.4c-0.2-2.3-2-4.1-4.3-4.3h-7.5c-2.3-0.2-4.1-2-4.3-4.3V74
	c0.2-2.3,2-4.1,4.3-4.3L357.1,70.8z"/>
<path id="path74" class="st0" d="M339.9,76.7c-2.4,0-4.3,1.9-4.3,4.3c0,2.4,1.9,4.3,4.3,4.3c0,0,0,0,0,0h10.7
	c7,0.7,13.2-4.4,13.9-11.3c0.1-0.5,0.1-1,0.1-1.6V61.6c-0.1-7.1-5.8-12.8-12.9-12.9h-17.2c-2.4,0-4.3,1.9-4.3,4.3
	c0,2.4,1.9,4.3,4.3,4.3c0,0,0,0,0,0h17.2c2.3,0.2,4.1,2,4.3,4.3v10.7c-0.2,2.3-2,4.1-4.3,4.3L339.9,76.7z"/>
<path id="path76" class="st0" d="M440,58.4c2.4,0,4.3-1.9,4.3-4.3c0-2.4-1.9-4.3-4.3-4.3c0,0,0,0,0,0h-16.1c-8.6,0-14,5.4-12.9,12.9
	v10.7c0.1,7.1,5.8,12.8,12.9,12.9H441c2.4,0,4.3-1.9,4.3-4.3c0-2.4-1.9-4.3-4.3-4.3h-17.2c-2.3-0.2-4.1-2-4.3-4.3V62.7
	c0.2-2.3,2-4.1,4.3-4.3L440,58.4z"/>
<path id="path78" class="st0" d="M476.4,73.5c-0.2,2.3-2,4.1-4.3,4.3h-11.8c-2.3-0.2-4.1-2-4.3-4.3V62.7c0.2-2.3,2-4.1,4.3-4.3h11.9
	c2.3,0.2,4.1,2,4.3,4.3v10.7H476.4z M473.2,49.8h-10.7c-7-0.7-13.2,4.4-13.9,11.3c-0.1,0.5-0.1,1-0.1,1.6v10.7
	c0.1,7.1,5.8,12.8,12.9,12.9h10.7c7,0.7,13.2-4.4,13.9-11.3c0.1-0.5,0.1-1,0.1-1.6V62.7C485.6,55.8,480.1,50.3,473.2,49.8"/>
<path id="path80" class="st0" d="M314.1,56.3c0,0,4.3,0,4.3-7.5v-5.4c-0.1-6.5-5.3-11.8-11.8-11.8h-9.7c-8.6,0-9.7,2.1-9.7,11.8
	v30.1c-1.1,9.7,1.1,11.8,10.7,11.8h14c6.5-0.1,11.8-5.3,11.8-11.8V67C323.8,61.5,319.6,56.8,314.1,56.3 M296.9,40.1h9.7
	c1.7,0.1,3.1,1.5,3.2,3.2v4.3c0,2.1-1.1,5.4-3.2,5.4h-11.8v-9.7C294.7,40.1,293.6,40.1,296.9,40.1 M316.2,73.5
	c-0.1,1.7-1.5,3.1-3.2,3.2h-15c-3.2,0-3.2-1.1-3.2-3.2V61.6h17.2c2.1,0,3.2,3.2,3.2,5.4C315.1,67,316.2,73.5,316.2,73.5z"/>
</svg>
