<?xml version="1.0" encoding="utf-8"?>
<!-- Generator: Adobe Illustrator 24.0.1, SVG Export Plug-In . SVG Version: 6.00 Build 0)  -->
<svg version="1.1" id="Layer_1" xmlns="http://www.w3.org/2000/svg" xmlns:xlink="http://www.w3.org/1999/xlink" x="0px" y="0px"
	 viewBox="0 0 1480.5 300" style="enable-background:new 0 0 1480.5 300;" xml:space="preserve">
<style type="text/css">
	.st0{fill:#1D1D1B;}
</style>
<path class="st0" d="M450.2,259.8h9.5c36.8,0,79.2-15,79.2-58.7c0.7-26.9-19.7-49.7-46.5-51.8l0,0c21.3-5.3,36-24.6,35.5-46.5
	c0-45-39.5-53.6-76.4-53.6h-1.3v40.2l0,0c15,0,31.4,4,31.4,21.8s-15,23.2-28.7,23.2h-2.7V174h4c15,0,36.8,2.7,36.8,23.2
	c0,17.8-16.3,24.7-31.4,24.7h-9.5L450.2,259.8z M373.7,259.8h77.8v-40.2h-31.4v-47.2h31.4V133h-31.4V87.8h31.4V48.3h-77.8
	L373.7,259.8z"/>
<path class="st0" d="M649.5,259.8h40.2v-73.7c0-47.8-13.4-73.7-65.5-73.7h-2.7v30c14.4,0,26.3,11.4,26.8,25.9h-26.8V197
	c5.4-1,10.9-1.5,16.3-1.3h11v9.5c-0.4,14.5-12.3,26-26.8,26v28.7c10.9-3.1,20.3-9.9,26.8-19.2l0,0L649.5,259.8z M622.7,112.5
	c-22.6-0.2-44.5,8-61.4,23.2l23.2,24.5c8.7-10.8,21.6-17.2,35.4-17.7h1.5v-30L622.7,112.5z M622.7,168.3
	c-34.2,2.8-69.7,11-69.7,50.5c0,28.7,24.7,45,51.8,45c6.5-0.2,12.9-1.1,19.2-2.7v-28.7h-7c-9.5,0-20.5-5.5-20.5-15
	c0-13.4,13.4-17.7,26.8-20.5v-28.7L622.7,168.3z"/>
<path class="st0" d="M714.9,259.8h45v-72.3c0-19.2,4.2-36.8,26.8-36.8c22.6,0,23.2,21.8,23.2,38.2v71h45v-80.4
	c0-38.2-8.2-68.2-53.6-68.2c-17.2-0.3-33.3,8.5-42.3,23.2l0,0v-19.3h-41.3v144.7H714.9z"/>
<path class="st0" d="M878.6,259.8h45v-60c0-28.7,4.2-47.8,38.3-47.8c6.4,0.2,12.8,1.1,19,2.7v-40.9c-4.9-1.2-10-1.6-15-1.3
	c-17.8-0.2-33.9,10.4-40.9,26.8l0,0v-22.8h-45v143.4H878.6z"/>
<path class="st0" d="M1002.8,259.8h45V115.1h-45V259.8z M1000.1,70.5L1000.1,70.5c0.4,14.3,12.4,25.6,26.8,25.2
	c14.3-0.4,25.6-12.4,25.2-26.8c-0.4-14.1-12-25.3-26.1-25.2c-14.3,0-25.9,11.6-25.9,25.8C1000.1,69.9,1000.1,70.2,1000.1,70.5z"/>
<path class="st0" d="M1185.7,130.1c-14.7-13.1-33.9-19.9-53.6-19c-30,0-60,15-60,49c0,54.7,75,35.5,75,58.7c0,8.2-9.6,11-20.5,11
	c-12.2,0.2-23.8-5.3-31.4-15l-26.8,30c15.3,13.6,35.5,20.5,56,19c31.4,0,67-10.9,67-47.7c0-54.7-75.2-36.8-75.2-58.7
	c0-8.2,9.6-12.3,16.5-12.3c10.1-0.2,19.7,4.3,25.9,12.3L1185.7,130.1z"/>
<path class="st0" d="M1349.4,115.1h-45v72.3c0,19-4.2,36.8-26.8,36.8s-23.2-21.8-23.2-38.2v-71h-43.7v79.2
	c0,38.2,8.2,68.2,53.6,68.2c17.2,0.3,33.3-8.5,42.3-23.2l0,0v18.8h42.3v-143H1349.4z"/>
<rect x="1375.2" y="36" class="st0" width="45" height="223.7"/>
<path class="st0" d="M173.3,97.3H245c-0.1,2.5-0.7,4.9-1.6,7.2l-18.6,28.3h-38.6c-5.2,0.1-10,3.2-12.1,8l0,0l0,0V97.3H173.3z
	 M173.3,273.6L173.3,273.6c3.1-0.1,6-1.6,8-4l38.6-59.5c1.2-2,2-4.2,2.4-6.4h86.5c0.1,2.4-0.8,4.7-2.5,6.4l-38.6,59.5
	c-1.7,2.4-4.3,3.8-7.2,4H173.3z M173.3,210.9l0.8-0.8c0.9-2.1,1.7-4.2,2.4-6.4h-2.4v7.2H173.3z M173.3,140.9L173.3,140.9l-17.7,26.8
	h-44.3c-2,0-3.9-0.6-5.6-1.6c3.4,1.5,7.4,0.5,9.6-2.4l40.2-58.8c1.5-2.1,2.3-4.6,2.4-7.2h14.5l0.8,42.7L173.3,140.9z M173.3,203.7
	v7.2l-37.9,58.7c-1.8,2.2-4.4,3.4-7.2,3.2H40.9c3.1-0.1,6-1.6,8-4l38.7-59.5c1.2-2,2-4.2,2.4-6.4H173L173.3,203.7z"/>
<path class="st0" d="M174.9,197.3c1.1,2,1.3,4.4,0.8,6.6h-0.8V197.3z M174.9,138.6c2.7-2.1,6.7-1.7,8.8,1.1c0.3,0.4,0.6,0.9,0.8,1.3
	l35.4,54.7c1.7,2.4,2.5,5.3,2.4,8.2h86.5c0-2.9-0.9-5.8-2.5-8.2l-38.9-59.5c-1.7-2.4-4.3-3.8-7.2-4h-74.1
	C181.6,132.2,177.3,134.6,174.9,138.6z M174.9,97.3V26.6h22.5c2.9,0.2,5.6,1.6,7.2,4l38.7,59.6c1.3,2.2,1.9,4.7,1.6,7.2h-70.1V97.3z
	 M42,132.1h41.1l17.7,26.8c2.4,3.2,4,6.4,6.4,7.2c1.7,1,3.6,1.6,5.6,1.6h44.3l18.5,28.1c0,0.8,0.8,0.8,0.8,1.6v7H90.4
	c0.1-2.9-0.7-5.8-2.4-8.2l-38.7-60.2C47.6,133.8,43.6,133,42,132.1z M174.9,26.6v70.7h-16.1c-0.1-2.6-0.9-5.1-2.4-7.2l-38.7-59.8
	c-2-2.4-4.9-3.9-8-4L174.9,26.6z M174.9,138.6l-1.6,1.6C174.1,139.4,174.9,139.4,174.9,138.6z"/>
</svg>
