<?xml version="1.0" encoding="utf-8"?>
<!-- Generator: Adobe Illustrator 24.0.1, SVG Export Plug-In . SVG Version: 6.00 Build 0)  -->
<svg version="1.1" id="Layer_1" xmlns="http://www.w3.org/2000/svg" xmlns:xlink="http://www.w3.org/1999/xlink" x="0px" y="0px"
	 viewBox="0 0 637.7 300" style="enable-background:new 0 0 637.7 300;" xml:space="preserve">
<style type="text/css">
	.st0{fill:#1D1D1B;}
</style>
<path class="st0" d="M108.7,132.5V20.2h8.3v112.3H108.7z M124.4,132.5V20.2h15v112.3H124.4z M52.7,274.5V20.2H61v254.3H52.7z
	 M34.3,274.5V20.2h15v254.3H34.3z M154.1,132.5V20.2h8.4v112.3H154.1z M166.1,132.5V20.2h6.4v112.3H166.1z M178.3,132.5V20.2h15
	v112.3H178.3z M196.7,132.5V20.2h8.4v112.3H196.7z M217.2,132.5V20.2h27.1v112.3H217.2z M252.8,132.5V20.2h8.3v112.3H252.8z
	 M268.4,132.5V20.2h14.6v112.3H268.4z M298.1,132.5V20.2h8.3v112.3H298.1z M310.1,132.5V20.2h6.4v112.3H310.1z M327.2,132.5V20.2
	h14.3v112.3H327.2z M356.9,132.5V20.2h8.3v112.3H356.9z M368.9,132.5V20.2h6.4v112.3H368.9z M381.1,132.5V20.2h15v112.3H381.1z
	 M399.5,132.5V20.2h8.3v112.3H399.5z M419.3,132.5V20.2h8.4v112.3H419.3z M431.3,132.5V20.2h6.4v112.3H431.3z M443.5,132.5V20.2h15
	v112.3H443.5z M462,132.5V20.2h8.4v112.3H462z M477.6,132.5V20.2h27.1v112.3H477.6z M513.1,132.5V20.2h8.4v112.3H513.1z
	 M528.8,132.5V20.2h15v112.3H528.8z M558.5,132.5V20.2h8.3v112.3H558.5z M570.5,132.5V20.2h6.4v112.3H570.5z M587.5,274.5V20.2h15
	v254.3H587.5z M73.2,132.5V20.2h27v112.3H73.2z M151.2,243.1c1.9-3.3,2.8-7,2.9-10.8c0.1-4.5-1.2-8.9-3.8-12.6
	c-2.3-3.6-5.8-6.2-9.9-7.5c-6.1-1.7-12.4-2.4-18.7-2.2H91.9v44.5h31.4c3.9,0.1,7.8-0.1,11.6-0.7c3.5-0.4,6.9-1.6,9.9-3.5
	C147.6,248.5,149.8,246,151.2,243.1z M91.7,155.8v39.1h27.8c5.4,0.2,10.9-0.3,16.2-1.5c3.9-1,7.4-3.2,9.9-6.4
	c2.3-3.3,3.4-7.3,3.3-11.3c0-4-1-7.9-3.1-11.3c-2-3.2-5.1-5.6-8.7-6.7c-6.5-1.5-13.2-2.1-19.8-1.8L91.7,155.8z M147.5,201
	c7.1,1.8,13.4,5.9,17.9,11.7c4.3,5.7,6.5,12.7,6.2,19.8c0,5.8-1.3,11.6-3.9,16.9c-2.1,4.7-5.3,8.9-9.4,12.1c-4.2,3-8.9,5.2-14,6.3
	c-6.8,1.5-13.8,2.2-20.7,2.1H74.8V141h48.1c8.1-0.3,16.1,1,23.6,4c5.8,2.5,10.6,6.7,13.9,12c3.3,5.1,5,11,5.1,17
	c0,5.5-1.6,10.9-4.5,15.6c-3.3,5.1-7.9,9.2-13.5,11.8V201z M250.1,249.6c5.7-7.9,8.5-17.5,7.7-27.3c0.7-9.4-2.1-18.7-7.8-26.2
	c-4.9-5.9-12.2-9.1-19.8-8.9c-7.6-0.2-14.9,3.1-19.8,8.8c-5.7,7.7-8.5,17.2-7.7,26.8c-0.8,9.6,2,19.1,7.7,26.9
	c4.9,5.8,12.2,9.1,19.8,8.9c7.6,0.1,14.8-3.2,19.6-9H250.1z M230.3,174.1c11.7-0.4,23,4.2,31.2,12.6c8.6,9.5,12.9,22.1,12.2,34.9
	c0.5,9.7-1.4,19.4-5.5,28.2c-3.5,6.8-8.9,12.4-15.7,16.1c-6.9,3.8-14.6,5.7-22.4,5.6c-11.8,0.5-23.2-4.1-31.5-12.5
	c-8.6-10-12.9-23-12-36.2c-1.2-14.3,4.1-28.4,14.4-38.4C209.2,177.5,219.5,173.8,230.3,174.1L230.3,174.1z M291.8,269.7V140.8h15.8
	v128.9H291.8z M343.7,213.9h51.7c-0.2-6.3-2.2-12.5-5.9-17.6c-4.7-6.1-12.1-9.5-19.8-9.2c-6.5,0.1-12.7,2.7-17.3,7.3
	C347.1,199.6,344.1,206.6,343.7,213.9z M370,174.3c11.5-0.3,22.6,4.3,30.3,12.8c8.2,10,12.3,22.7,11.5,35.6c0,1,0,2.4,0,4.3h-69.4
	c0,8.6,3,16.9,8.6,23.5c5.1,5.5,12.3,8.5,19.8,8.2c5.3,0.1,10.4-1.5,14.7-4.7c4.7-3.8,8.2-8.9,9.9-14.7l16.3,2.2
	c-2.1,8.8-7.1,16.6-14.2,22.2c-7.7,5.5-17,8.3-26.5,7.9c-12.1,0.6-23.8-4-32.2-12.7c-8.4-9.8-12.7-22.4-11.9-35.3
	c-0.8-13.1,3.4-26,11.8-36.2c8-8.8,19.4-13.7,31.2-13.4V174.3z M459.2,256.3c2.3,0,4.6-0.2,6.8-0.6l2.2,14
	c-3.9,0.9-7.9,1.4-11.9,1.4c-4.6,0.2-9.1-0.7-13.3-2.7c-2.9-1.6-5.2-4.2-6.5-7.2c-1.7-6.1-2.4-12.4-2-18.7v-54h-12v-12.3h11.6V153
	l15.8-9.9v32.6h15.8V188h-15.8v54.7c-0.2,2.9,0.1,5.9,0.9,8.7c0.5,1.3,1.5,2.4,2.7,3.2c1.7,0.8,3.5,1.2,5.4,1.1L459.2,256.3z
	 M538.5,249.8c5.7-7.9,8.5-17.5,7.7-27.3c0.7-9.4-2.1-18.7-7.8-26.2c-4.9-5.9-12.2-9.2-19.8-8.9c-7.6-0.2-14.9,3.1-19.8,8.8
	c-5.7,7.7-8.5,17.2-7.7,26.8c-0.8,9.6,2,19.1,7.7,26.9c4.9,5.8,12.2,9.1,19.8,8.9C526.2,259.1,533.5,255.7,538.5,249.8L538.5,249.8z
	 M518.7,174.3c11.9-0.6,23.5,3.9,31.9,12.4c8.6,9.5,12.9,22.1,12.2,34.9c0.5,9.7-1.4,19.4-5.4,28.2c-3.5,6.8-9,12.4-15.7,16.1
	c-6.9,3.8-14.6,5.7-22.4,5.6c-11.8,0.5-23.3-4-31.5-12.5c-8.6-10-13-23-12.1-36.2c-1.2-14.3,4.1-28.4,14.4-38.4
	c8-6.9,18.2-10.6,28.7-10.4L518.7,174.3z"/>
</svg>
